<?xml version="1.0" standalone="no"?>
<!DOCTYPE svg PUBLIC "-//W3C//DTD SVG 20010904//EN"
 "http://www.w3.org/TR/2001/REC-SVG-20010904/DTD/svg10.dtd">
<svg version="1.0" xmlns="http://www.w3.org/2000/svg"
 width="1473.000000pt" height="2400.000000pt" viewBox="0 0 1473.000000 2400.000000"
 preserveAspectRatio="xMidYMid meet">
<metadata>
Created by potrace 1.15, written by Peter Selinger 2001-2017
</metadata>
<g transform="translate(0.000000,2400.000000) scale(0.100000,-0.100000)"
fill="#000000" stroke="none">
<path d="M7340 23014 c-14 -2 -59 -9 -100 -15 -256 -38 -546 -192 -813 -432
-107 -96 -271 -289 -305 -357 l-27 -55 -3 -756 -4 -756 -123 82 c-287 192
-535 276 -816 276 -312 0 -586 -117 -841 -360 -163 -155 -292 -327 -399 -533
l-54 -103 -5 -2540 -5 -2540 -29 55 c-133 252 -338 507 -532 662 -217 173
-476 290 -753 340 -140 25 -452 31 -596 10 -252 -36 -539 -123 -760 -231 -208
-102 -277 -173 -277 -291 -1 -25 15 -119 35 -210 271 -1253 364 -3364 267
-6075 -17 -483 -48 -1126 -86 -1795 -39 -693 -40 -794 -4 -1065 184 -1394 700
-2686 1443 -3610 827 -1028 1920 -1643 3267 -1839 392 -57 425 -59 1420 -63
1115 -5 1320 4 1770 78 1212 200 2204 734 2979 1604 854 958 1431 2314 1631
3830 36 271 35 372 -4 1065 -38 669 -69 1312 -86 1795 -97 2711 -4 4822 267
6075 20 91 36 185 35 210 0 118 -69 189 -277 291 -221 108 -508 195 -760 231
-144 21 -456 15 -596 -10 -277 -50 -536 -167 -753 -340 -194 -155 -399 -410
-532 -662 l-29 -55 -5 2540 -5 2540 -54 103 c-213 410 -544 723 -883 836 -123
41 -222 57 -357 57 -281 0 -529 -84 -816 -276 l-123 -82 -4 756 -3 756 -27 55
c-34 68 -198 261 -305 357 -256 230 -514 372 -783 429 -85 18 -143 24 -180 18z
m100 -473 c0 -5 32 -19 70 -30 192 -59 453 -243 611 -432 l42 -51 23 -4679 23
-4678 22 -51 c37 -86 116 -140 205 -140 104 0 185 51 223 140 l22 51 -15 3087
c-9 1698 -16 3350 -17 3672 l-1 585 89 84 c247 234 490 378 711 421 95 19 251
9 340 -23 206 -72 403 -252 562 -513 l60 -99 0 -4017 c-1 -2872 2 -4030 10
-4059 13 -49 70 -113 124 -141 56 -29 146 -29 202 0 52 27 107 90 122 141 8
26 12 159 12 417 0 588 32 1015 106 1444 162 931 511 1540 1012 1761 304 134
670 141 1063 19 114 -35 269 -99 269 -110 0 -4 -9 -52 -20 -106 -110 -536
-198 -1329 -245 -2214 -32 -620 -39 -951 -39 -1880 0 -1346 30 -2228 135
-4065 24 -422 23 -477 -26 -815 -120 -823 -393 -1688 -741 -2347 -784 -1485
-1967 -2341 -3559 -2572 -370 -54 -419 -56 -1470 -56 -1051 0 -1100 2 -1470
56 -1888 275 -3228 1450 -3940 3454 -191 537 -351 1251 -396 1770 -10 111 -9
186 10 510 105 1837 135 2719 135 4065 0 929 -7 1260 -39 1880 -47 885 -135
1678 -245 2214 -11 54 -20 102 -20 106 0 11 155 75 269 110 393 122 759 115
1063 -19 404 -179 720 -624 902 -1273 150 -533 216 -1123 216 -1932 0 -258 4
-391 12 -417 15 -51 70 -114 122 -141 56 -29 146 -29 202 0 54 28 111 92 124
141 8 29 11 1187 10 4059 l0 4017 60 99 c159 261 356 441 562 513 89 32 245
42 340 23 221 -43 464 -187 711 -421 l89 -84 -1 -585 c-1 -322 -8 -1974 -17
-3672 l-15 -3087 22 -51 c38 -89 119 -140 223 -140 89 0 168 54 205 140 l22
51 23 4678 23 4679 42 51 c63 75 198 198 287 263 178 127 347 194 527 207 9 0
17 -3 17 -8z"/>
</g>
</svg>
