<?xml version="1.0" encoding="UTF-8" standalone="no"?>
<!-- Created with Inkscape (http://www.inkscape.org/) -->

<svg
   xmlns:dc="http://purl.org/dc/elements/1.1/"
   xmlns:cc="http://creativecommons.org/ns#"
   xmlns:rdf="http://www.w3.org/1999/02/22-rdf-syntax-ns#"
   xmlns:svg="http://www.w3.org/2000/svg"
   xmlns="http://www.w3.org/2000/svg"
   xmlns:sodipodi="http://sodipodi.sourceforge.net/DTD/sodipodi-0.dtd"
   xmlns:inkscape="http://www.inkscape.org/namespaces/inkscape"
   version="1.1"
   id="svg123273"
   xml:space="preserve"
   width="666.66669"
   height="666.66669"
   viewBox="0 0 666.66669 666.66669"
   sodipodi:docname="tree-life-publicdomainvectors.org.svg"
   inkscape:version="0.92.4 (5da689c313, 2019-01-14)"><metadata
     id="metadata123279"><rdf:RDF><cc:Work
         rdf:about=""><dc:format>image/svg+xml</dc:format><dc:type
           rdf:resource="http://purl.org/dc/dcmitype/StillImage" /><dc:title></dc:title></cc:Work></rdf:RDF></metadata><defs
     id="defs123277"><clipPath
       clipPathUnits="userSpaceOnUse"
       id="clipPath123289"><path
         d="M 0,500 H 500 V 0 H 0 Z"
         id="path123287"
         inkscape:connector-curvature="0" /></clipPath><clipPath
       clipPathUnits="userSpaceOnUse"
       id="clipPath123299"><path
         d="M 444.88,250 C 444.88,142.371 357.629,55.12 250,55.12 142.371,55.12 55.12,142.371 55.12,250 c 0,107.629 87.251,194.88 194.88,194.88 107.629,0 194.88,-87.251 194.88,-194.88"
         id="path123297"
         inkscape:connector-curvature="0" /></clipPath></defs><sodipodi:namedview
     pagecolor="#ffffff"
     bordercolor="#666666"
     borderopacity="1"
     objecttolerance="10"
     gridtolerance="10"
     guidetolerance="10"
     inkscape:pageopacity="0"
     inkscape:pageshadow="2"
     inkscape:window-width="640"
     inkscape:window-height="480"
     id="namedview123275"
     showgrid="false"
     inkscape:zoom="0.45771092"
     inkscape:cx="333.33334"
     inkscape:cy="333.33334"
     inkscape:window-x="0"
     inkscape:window-y="0"
     inkscape:window-maximized="0"
     inkscape:current-layer="g123281" /><g
     id="g123281"
     inkscape:groupmode="layer"
     inkscape:label="tree-life-publicdomainvectors.org"
     transform="matrix(1.3333333,0,0,-1.3333333,0,666.66667)"><g
       id="g123283"><g
         id="g123285"
         clip-path="url(#clipPath123289)"><path
           d="M 500,0 H 0 v 500 h 500 z"
           style="fill:#378085;fill-opacity:1;fill-rule:nonzero;stroke:none"
           id="path123291"
           inkscape:connector-curvature="0" /><g
           id="g123293"><g
             id="g123295"
             clip-path="url(#clipPath123299)"><path
               d="M 444.88,250 C 444.88,142.371 357.629,55.12 250,55.12 142.371,55.12 55.12,142.371 55.12,250 c 0,107.629 87.251,194.88 194.88,194.88 107.629,0 194.88,-87.251 194.88,-194.88"
               style="fill:#ffffff;fill-opacity:1;fill-rule:nonzero;stroke:none"
               id="path123301"
               inkscape:connector-curvature="0" /><path
               d="m 339.969,267.694 c 0,-0.034 -0.009,-0.095 -0.035,-0.173 -0.043,-0.232 -0.129,-0.465 -0.25,-0.698 l -0.095,-0.181 -12.942,-25.314 c -0.517,-0.345 -0.94,-0.621 -1.276,-0.828 -0.13,-0.078 -0.242,-0.146 -0.346,-0.207 -0.06,-0.035 -0.121,-0.069 -0.171,-0.095 -0.13,-0.069 -0.268,-0.138 -0.407,-0.216 -0.992,-0.483 -2.311,-0.949 -3.926,-1.38 -0.258,-0.069 -0.525,-0.138 -0.801,-0.199 -0.259,-0.06 -0.527,-0.121 -0.794,-0.181 -0.811,-0.181 -1.665,-0.345 -2.572,-0.492 6.644,8.481 13.14,18.377 15.997,25.676 0,0 0,0.009 0.008,0.017 0.802,2.062 1.32,3.917 1.466,5.47 0.078,0.82 1.743,1.657 3.331,1.657 0.682,0 1.311,-0.19 1.803,-0.527 0.285,-0.198 0.526,-0.448 0.707,-0.742 0.294,-0.474 0.389,-1.026 0.303,-1.587"
               style="fill:#f3ba0c;fill-opacity:1;fill-rule:nonzero;stroke:none"
               id="path123303"
               inkscape:connector-curvature="0" /><path
               d="m 352.021,263.096 -8.593,-9.767 c -3.805,-2.795 -8.498,-6.212 -12.277,-8.895 h -0.008 l 0.241,0.474 c 0,0 0,0.009 0.009,0.009 l 3.667,7.187 0.016,0.026 c 0.57,0.69 1.131,1.371 1.674,2.044 4.314,5.281 8.05,10 10.535,13.166 0.871,1.122 3.2,2.39 5.495,1.648 0.043,-0.009 0.078,-0.017 0.121,-0.034 0.173,-0.052 0.32,-0.199 0.414,-0.371 0.061,-0.121 0.104,-0.259 0.113,-0.406 0.034,-1.26 -0.104,-3.597 -1.407,-5.081"
               style="fill:#f3ba0c;fill-opacity:1;fill-rule:nonzero;stroke:none"
               id="path123305"
               inkscape:connector-curvature="0" /><path
               d="m 312.43,258.221 c 0,-0.104 0,-0.207 -0.027,-0.346 l -3.408,-21.008 c -0.146,-0.008 -0.293,-0.025 -0.439,-0.025 -0.311,-0.027 -0.63,-0.052 -0.95,-0.061 -0.431,-0.025 -0.862,-0.052 -1.293,-0.069 -0.717,-0.034 -1.433,-0.06 -2.14,-0.077 -0.328,-0.009 -0.656,-0.018 -0.976,-0.018 -0.215,-0.009 -0.422,-0.009 -0.629,-0.009 v 0.009 l 4.892,18.739 0.88,3.374 c 0.241,0.915 1.069,1.553 2.018,1.553 0.664,0 1.251,-0.311 1.631,-0.794 0.277,-0.345 0.441,-0.794 0.441,-1.268"
               style="fill:#f3ba0c;fill-opacity:1;fill-rule:nonzero;stroke:none"
               id="path123307"
               inkscape:connector-curvature="0" /><path
               d="m 358.302,255.986 c 0,-0.12 -0.008,-0.233 -0.026,-0.345 -0.086,-0.664 -0.422,-1.251 -0.958,-1.674 l -34.916,-27.435 c -2.302,-1.338 -34.242,-20.249 -38.159,-36.788 -0.25,-1.079 -0.389,-2.157 -0.389,-3.21 0,-16.047 10.328,-133.813 11.614,-148.42 L 273.39,36.483 260.181,35.508 v 183.751 c 0,0.466 0.069,0.923 0.198,1.363 0.198,0.673 0.552,1.294 1.026,1.812 2.65,2.855 5.807,7.005 5.807,10.534 0,1.406 -0.388,5.271 -0.871,10.155 -0.828,8.273 -2.486,24.813 -1.735,28.954 v 0.008 c 0.052,0.242 0.104,0.432 0.165,0.587 0.362,0.164 0.707,0.389 1.043,0.596 0.907,0.595 1.373,0.836 1.924,0.603 2.028,-0.81 5.574,-6.643 11.095,-29.265 0.276,-1.121 0.553,-2.277 0.837,-3.485 l 0.139,-0.578 0.526,-0.276 c 0.423,-0.224 10.008,-5.168 18.92,-6.091 0.173,-0.018 0.345,-0.034 0.509,-0.043 0.354,-0.035 0.708,-0.061 1.052,-0.078 0.406,-0.026 0.82,-0.034 1.217,-0.034 2.079,0 4.193,0.069 6.289,0.207 0.63,0.043 1.269,0.094 1.899,0.146 l 0.112,0.009 0.889,0.078 c 0.198,0.008 0.405,0.034 0.612,0.052 0.544,0.059 1.096,0.12 1.631,0.189 2.932,0.354 5.521,0.828 7.713,1.398 1.285,0.337 2.407,0.708 3.364,1.095 0.587,0.234 1.104,0.484 1.562,0.734 0.06,0.034 0.129,0.069 0.199,0.112 0.137,0.077 0.284,0.164 0.457,0.276 0.25,0.156 0.543,0.336 0.88,0.561 0.215,0.146 0.457,0.31 0.724,0.483 0.095,0.061 0.191,0.129 0.285,0.19 3.96,2.675 11.078,7.851 16.418,11.768 3.209,2.355 6.161,4.538 8.222,6.065 l 0.924,0.681 c 0.828,0.613 1.949,0.665 2.847,0.13 0.776,-0.466 1.242,-1.285 1.242,-2.209"
               style="fill:#f3ba0c;fill-opacity:1;fill-rule:nonzero;stroke:none"
               id="path123309"
               inkscape:connector-curvature="0" /><path
               d="m 273.39,36.483 -13.209,-0.975 v 183.751 c 0,0.466 0.069,0.923 0.198,1.363 l 1.026,-1.165 z"
               style="fill:#cc8a18;fill-opacity:1;fill-rule:nonzero;stroke:none"
               id="path123311"
               inkscape:connector-curvature="0" /><path
               d="m 278.833,244.606 c -0.043,-2.734 -0.077,-4.201 -0.077,-3.287 0,2.934 -9.637,22.225 -14.15,30.758 v 0.008 c 0.052,0.242 0.104,0.432 0.165,0.587 0.362,0.164 0.707,0.389 1.043,0.596 0.907,0.595 1.373,0.836 1.924,0.603 2.028,-0.81 5.574,-6.643 11.095,-29.265"
               style="fill:#f6d77a;fill-opacity:1;fill-rule:nonzero;stroke:none"
               id="path123313"
               inkscape:connector-curvature="0" /><path
               d="m 358.276,255.641 c -0.086,-0.664 -0.422,-1.251 -0.958,-1.674 l -34.916,-27.435 c -2.302,-1.338 -34.242,-20.249 -38.159,-36.788 -0.25,-0.078 -0.38,-0.121 -0.38,-0.121 0,0 3.667,12.294 5.393,15.745 1.725,3.451 68.589,50.256 68.589,50.256 z"
               style="fill:#cc8a18;fill-opacity:1;fill-rule:nonzero;stroke:none"
               id="path123315"
               inkscape:connector-curvature="0" /><path
               d="m 352.78,268.988 c -0.086,-0.051 -0.189,-0.069 -0.328,-0.034 -1.613,0.388 -16.564,-16.393 -17.392,-17.212 l 1.69,2.432 c 4.314,5.281 8.05,10 10.535,13.166 0.871,1.122 3.2,2.39 5.495,1.648"
               style="fill:#f6d77a;fill-opacity:1;fill-rule:nonzero;stroke:none"
               id="path123317"
               inkscape:connector-curvature="0" /><path
               d="m 338.959,270.023 c -2.614,0 -6.367,-6.211 -6.6,-6.6 0.802,2.062 1.32,3.917 1.466,5.47 0.078,0.82 1.743,1.657 3.331,1.657 0.682,0 1.311,-0.19 1.803,-0.527"
               style="fill:#f6d77a;fill-opacity:1;fill-rule:nonzero;stroke:none"
               id="path123319"
               inkscape:connector-curvature="0" /><path
               d="m 311.989,259.489 c -1.354,1.346 -4.495,-4.184 -4.495,-4.184 0,0 -0.017,0.017 -0.034,0.051 l 0.88,3.374 c 0.241,0.915 1.069,1.553 2.018,1.553 0.664,0 1.251,-0.311 1.631,-0.794"
               style="fill:#f6d77a;fill-opacity:1;fill-rule:nonzero;stroke:none"
               id="path123321"
               inkscape:connector-curvature="0" /><path
               d="m 352.021,263.096 -8.593,-9.767 c -3.805,-2.795 -8.498,-6.212 -12.277,-8.895 h -0.008 l 0.241,0.474 c 0,0 0,0.009 0.009,0.009 2.407,1.847 21.724,16.875 21.922,23.648 v 0.018 c 0.061,-0.121 0.104,-0.259 0.113,-0.406 0.034,-1.26 -0.104,-3.597 -1.407,-5.081"
               style="fill:#cc8a18;fill-opacity:1;fill-rule:nonzero;stroke:none"
               id="path123323"
               inkscape:connector-curvature="0" /><path
               d="m 339.969,267.694 c 0,-0.034 -0.009,-0.095 -0.035,-0.173 -0.06,-0.181 -0.172,-0.483 -0.345,-0.879 l -12.942,-25.314 c -0.517,-0.345 -0.94,-0.621 -1.276,-0.828 -0.13,-0.078 -0.242,-0.146 -0.346,-0.207 -0.06,-0.035 -0.121,-0.069 -0.171,-0.095 -0.13,-0.069 -0.268,-0.138 -0.407,-0.216 z"
               style="fill:#cc8a18;fill-opacity:1;fill-rule:nonzero;stroke:none"
               id="path123325"
               inkscape:connector-curvature="0" /><path
               d="m 312.403,257.875 -3.408,-21.008 c -0.146,-0.008 -0.293,-0.025 -0.439,-0.025 -0.311,-0.027 -0.63,-0.052 -0.95,-0.061 -0.431,-0.025 -0.862,-0.052 -1.293,-0.069 z"
               style="fill:#cc8a18;fill-opacity:1;fill-rule:nonzero;stroke:none"
               id="path123327"
               inkscape:connector-curvature="0" /><path
               d="m 158.306,267.694 c 0,-0.034 0.008,-0.095 0.034,-0.173 0.044,-0.232 0.13,-0.465 0.251,-0.698 l 0.095,-0.181 12.941,-25.314 c 0.518,-0.345 0.94,-0.621 1.277,-0.828 0.129,-0.078 0.242,-0.146 0.345,-0.207 0.06,-0.035 0.121,-0.069 0.172,-0.095 0.13,-0.069 0.268,-0.138 0.406,-0.216 0.992,-0.483 2.312,-0.949 3.925,-1.38 0.259,-0.069 0.527,-0.138 0.803,-0.199 0.259,-0.06 0.526,-0.121 0.794,-0.181 0.811,-0.181 1.665,-0.345 2.571,-0.492 -6.644,8.481 -13.14,18.377 -15.996,25.676 0,0 0,0.009 -0.008,0.017 -0.803,2.062 -1.32,3.917 -1.467,5.47 -0.078,0.82 -1.743,1.657 -3.33,1.657 -0.682,0 -1.312,-0.19 -1.804,-0.527 -0.284,-0.198 -0.526,-0.448 -0.707,-0.742 -0.294,-0.474 -0.388,-1.026 -0.302,-1.587"
               style="fill:#f3ba0c;fill-opacity:1;fill-rule:nonzero;stroke:none"
               id="path123329"
               inkscape:connector-curvature="0" /><path
               d="m 146.253,263.096 8.593,-9.767 c 3.805,-2.795 8.499,-6.212 12.278,-8.895 h 0.008 l -0.241,0.474 c 0,0 0,0.009 -0.009,0.009 l -3.667,7.187 -0.017,0.026 c -0.57,0.69 -1.131,1.371 -1.674,2.044 -4.314,5.281 -8.049,10 -10.534,13.166 -0.872,1.122 -3.201,2.39 -5.496,1.648 -0.043,-0.009 -0.077,-0.017 -0.121,-0.034 -0.172,-0.052 -0.319,-0.199 -0.414,-0.371 -0.06,-0.121 -0.104,-0.259 -0.112,-0.406 -0.034,-1.26 0.104,-3.597 1.406,-5.081"
               style="fill:#f3ba0c;fill-opacity:1;fill-rule:nonzero;stroke:none"
               id="path123331"
               inkscape:connector-curvature="0" /><path
               d="m 185.845,258.221 c 0,-0.104 0,-0.207 0.026,-0.346 l 3.408,-21.008 c 0.147,-0.008 0.293,-0.025 0.44,-0.025 0.311,-0.027 0.63,-0.052 0.949,-0.061 0.432,-0.025 0.863,-0.052 1.294,-0.069 0.716,-0.034 1.433,-0.06 2.14,-0.077 0.328,-0.009 0.655,-0.018 0.975,-0.018 0.215,-0.009 0.423,-0.009 0.63,-0.009 v 0.009 l -4.892,18.739 -0.88,3.374 c -0.242,0.915 -1.07,1.553 -2.019,1.553 -0.665,0 -1.251,-0.311 -1.631,-0.794 -0.276,-0.345 -0.44,-0.794 -0.44,-1.268"
               style="fill:#f3ba0c;fill-opacity:1;fill-rule:nonzero;stroke:none"
               id="path123333"
               inkscape:connector-curvature="0" /><path
               d="m 139.972,255.986 c 0,-0.12 0.009,-0.233 0.026,-0.345 0.086,-0.664 0.423,-1.251 0.958,-1.674 l 34.916,-27.435 c 2.303,-1.338 34.243,-20.249 38.16,-36.788 0.25,-1.079 0.388,-2.157 0.388,-3.21 0,-16.047 -10.327,-133.813 -11.613,-148.42 l 22.078,-1.631 13.209,-0.975 v 183.751 c 0,0.466 -0.069,0.923 -0.198,1.363 -0.199,0.673 -0.553,1.294 -1.027,1.812 -2.649,2.855 -5.806,7.005 -5.806,10.534 0,1.406 0.388,5.271 0.871,10.155 0.828,8.273 2.484,24.813 1.734,28.954 v 0.008 c -0.052,0.242 -0.104,0.432 -0.164,0.587 -0.362,0.164 -0.708,0.389 -1.044,0.596 -0.906,0.595 -1.372,0.836 -1.924,0.603 -2.027,-0.81 -5.573,-6.643 -11.095,-29.265 -0.276,-1.121 -0.552,-2.277 -0.837,-3.485 l -0.138,-0.578 -0.526,-0.276 c -0.423,-0.224 -10.008,-5.168 -18.92,-6.091 -0.173,-0.018 -0.346,-0.034 -0.509,-0.043 -0.354,-0.035 -0.708,-0.061 -1.053,-0.078 -0.405,-0.026 -0.82,-0.034 -1.216,-0.034 -2.08,0 -4.194,0.069 -6.29,0.207 -0.63,0.043 -1.268,0.094 -1.898,0.146 l -0.112,0.009 -0.889,0.078 c -0.199,0.008 -0.406,0.034 -0.613,0.052 -0.543,0.059 -1.095,0.12 -1.63,0.189 -2.934,0.354 -5.522,0.828 -7.713,1.398 -1.285,0.337 -2.407,0.708 -3.365,1.095 -0.586,0.234 -1.104,0.484 -1.562,0.734 -0.06,0.034 -0.129,0.069 -0.198,0.112 -0.138,0.077 -0.284,0.164 -0.457,0.276 -0.25,0.156 -0.544,0.336 -0.88,0.561 -0.216,0.146 -0.457,0.31 -0.725,0.483 -0.095,0.061 -0.19,0.129 -0.285,0.19 -3.959,2.675 -11.078,7.851 -16.418,11.768 -3.209,2.355 -6.16,4.538 -8.222,6.065 l -0.923,0.681 c -0.829,0.613 -1.95,0.665 -2.847,0.13 -0.777,-0.466 -1.243,-1.285 -1.243,-2.209"
               style="fill:#f3ba0c;fill-opacity:1;fill-rule:nonzero;stroke:none"
               id="path123335"
               inkscape:connector-curvature="0" /><path
               d="m 224.885,36.483 13.209,-0.975 v 183.751 c 0,0.466 -0.069,0.923 -0.198,1.363 l -1.027,-1.165 z"
               style="fill:#cc8a18;fill-opacity:1;fill-rule:nonzero;stroke:none"
               id="path123337"
               inkscape:connector-curvature="0" /><path
               d="m 219.441,244.606 c 0.043,-2.734 0.078,-4.201 0.078,-3.287 0,2.934 9.637,22.225 14.149,30.758 v 0.008 c -0.052,0.242 -0.104,0.432 -0.164,0.587 -0.362,0.164 -0.708,0.389 -1.044,0.596 -0.906,0.595 -1.372,0.836 -1.924,0.603 -2.027,-0.81 -5.573,-6.643 -11.095,-29.265"
               style="fill:#f6d77a;fill-opacity:1;fill-rule:nonzero;stroke:none"
               id="path123339"
               inkscape:connector-curvature="0" /><path
               d="m 139.998,255.641 c 0.086,-0.664 0.423,-1.251 0.958,-1.674 l 34.916,-27.435 c 2.303,-1.338 34.243,-20.249 38.16,-36.788 0.25,-0.078 0.379,-0.121 0.379,-0.121 0,0 -3.666,12.294 -5.392,15.745 -1.726,3.451 -68.589,50.256 -68.589,50.256 z"
               style="fill:#cc8a18;fill-opacity:1;fill-rule:nonzero;stroke:none"
               id="path123341"
               inkscape:connector-curvature="0" /><path
               d="m 145.494,268.988 c 0.086,-0.051 0.19,-0.069 0.328,-0.034 1.613,0.388 16.565,-16.393 17.393,-17.212 l -1.691,2.432 c -4.314,5.281 -8.049,10 -10.534,13.166 -0.872,1.122 -3.201,2.39 -5.496,1.648"
               style="fill:#f6d77a;fill-opacity:1;fill-rule:nonzero;stroke:none"
               id="path123343"
               inkscape:connector-curvature="0" /><path
               d="m 159.315,270.023 c 2.615,0 6.368,-6.211 6.601,-6.6 -0.803,2.062 -1.32,3.917 -1.467,5.47 -0.078,0.82 -1.743,1.657 -3.33,1.657 -0.682,0 -1.312,-0.19 -1.804,-0.527"
               style="fill:#f6d77a;fill-opacity:1;fill-rule:nonzero;stroke:none"
               id="path123345"
               inkscape:connector-curvature="0" /><path
               d="m 186.285,259.489 c 1.355,1.346 4.495,-4.184 4.495,-4.184 0,0 0.017,0.017 0.035,0.051 l -0.88,3.374 c -0.242,0.915 -1.07,1.553 -2.019,1.553 -0.665,0 -1.251,-0.311 -1.631,-0.794"
               style="fill:#f6d77a;fill-opacity:1;fill-rule:nonzero;stroke:none"
               id="path123347"
               inkscape:connector-curvature="0" /><path
               d="m 146.253,263.096 8.593,-9.767 c 3.805,-2.795 8.499,-6.212 12.278,-8.895 h 0.008 l -0.241,0.474 c 0,0 0,0.009 -0.009,0.009 -2.407,1.847 -21.724,16.875 -21.923,23.648 v 0.018 c -0.06,-0.121 -0.104,-0.259 -0.112,-0.406 -0.034,-1.26 0.104,-3.597 1.406,-5.081"
               style="fill:#cc8a18;fill-opacity:1;fill-rule:nonzero;stroke:none"
               id="path123349"
               inkscape:connector-curvature="0" /><path
               d="m 158.306,267.694 c 0,-0.034 0.008,-0.095 0.034,-0.173 0.061,-0.181 0.173,-0.483 0.346,-0.879 l 12.941,-25.314 c 0.518,-0.345 0.94,-0.621 1.277,-0.828 0.129,-0.078 0.242,-0.146 0.345,-0.207 0.06,-0.035 0.121,-0.069 0.172,-0.095 0.13,-0.069 0.268,-0.138 0.406,-0.216 z"
               style="fill:#cc8a18;fill-opacity:1;fill-rule:nonzero;stroke:none"
               id="path123351"
               inkscape:connector-curvature="0" /><path
               d="m 185.871,257.875 3.408,-21.008 c 0.147,-0.008 0.293,-0.025 0.44,-0.025 0.311,-0.027 0.63,-0.052 0.949,-0.061 0.432,-0.025 0.863,-0.052 1.294,-0.069 z"
               style="fill:#cc8a18;fill-opacity:1;fill-rule:nonzero;stroke:none"
               id="path123353"
               inkscape:connector-curvature="0" /><path
               d="m 282.819,301.562 c 0,-8.286 -5.064,-15.589 -8.809,-19.865 -0.287,-0.33 -0.567,-0.638 -0.84,-0.932 0,-0.008 -0.007,-0.008 -0.007,-0.008 -0.266,-0.286 -0.523,-0.559 -0.767,-0.81 0.006,0.093 0.014,0.194 0.014,0.294 0.114,2.045 0.194,4.197 0.194,6.421 0,13.171 -2.554,36.615 -2.554,36.615 0,0 -2.554,-23.444 -2.554,-36.615 0,-2.332 0.078,-4.584 0.208,-6.715 -0.99,1.011 -2.188,2.345 -3.43,3.946 -3.385,4.361 -7.001,10.667 -7.001,17.669 0,12.906 12.267,35.69 12.762,36.601 0.008,0.022 0.015,0.029 0.015,0.029 0,0 0,-0.007 0.007,-0.022 0.445,-0.811 12.762,-23.673 12.762,-36.608"
               style="fill:#378085;fill-opacity:1;fill-rule:nonzero;stroke:none"
               id="path123355"
               inkscape:connector-curvature="0" /><path
               d="m 272.41,280.241 c 0.287,0.265 0.639,0.588 1.055,0.968 -0.087,-0.157 -0.187,-0.308 -0.295,-0.444 0,-0.008 -0.007,-0.008 -0.007,-0.008 -0.229,-0.322 -0.487,-0.595 -0.767,-0.81 -1.206,-0.933 -1.077,-0.725 0.014,0.294"
               style="fill:#378085;fill-opacity:1;fill-rule:nonzero;stroke:none"
               id="path123357"
               inkscape:connector-curvature="0" /><path
               d="m 357.4,316.399 c -2.59,-7.87 -9.684,-13.224 -14.578,-16.114 -0.376,-0.224 -0.738,-0.43 -1.089,-0.623 -0.003,-0.007 -0.009,-0.005 -0.009,-0.005 -0.342,-0.19 -0.672,-0.368 -0.983,-0.53 0.036,0.086 0.074,0.18 0.106,0.275 0.748,1.906 1.496,3.926 2.191,6.038 4.118,12.511 9.024,35.579 9.024,35.579 0,0 -9.757,-21.471 -13.875,-33.982 -0.729,-2.215 -1.359,-4.379 -1.902,-6.443 -0.624,1.27 -1.346,2.912 -2.023,4.82 -1.853,5.202 -3.316,12.322 -1.126,18.973 4.035,12.259 22.811,30.065 23.566,30.776 0.014,0.018 0.023,0.022 0.023,0.022 0,0 -0.002,-0.007 0,-0.022 0.169,-0.91 4.72,-26.478 0.675,-38.764"
               style="fill:#378085;fill-opacity:1;fill-rule:nonzero;stroke:none"
               id="path123359"
               inkscape:connector-curvature="0" /><path
               d="m 340.847,299.402 c 0.355,0.162 0.791,0.359 1.304,0.59 -0.13,-0.123 -0.273,-0.235 -0.418,-0.33 -0.003,-0.007 -0.009,-0.005 -0.009,-0.005 -0.319,-0.235 -0.65,-0.413 -0.983,-0.53 -1.436,-0.509 -1.249,-0.352 0.106,0.275"
               style="fill:#378085;fill-opacity:1;fill-rule:nonzero;stroke:none"
               id="path123361"
               inkscape:connector-curvature="0" /><path
               d="m 387.979,270.376 c -6.776,-4.771 -15.663,-4.833 -21.315,-4.232 -0.435,0.044 -0.849,0.095 -1.246,0.149 -0.006,-0.004 -0.01,10e-4 -0.01,10e-4 -0.387,0.052 -0.759,0.106 -1.104,0.162 0.08,0.047 0.167,0.099 0.249,0.157 1.737,1.083 3.543,2.258 5.361,3.538 10.77,7.582 28.469,23.167 28.469,23.167 0,0 -20.64,-11.408 -31.409,-18.99 -1.907,-1.343 -3.703,-2.704 -5.371,-4.036 0.256,1.392 0.658,3.139 1.251,5.075 1.618,5.28 4.693,11.866 10.417,15.897 10.553,7.43 36.246,10.516 37.276,10.635 0.021,0.007 0.031,0.005 0.031,0.005 0,0 -0.006,-0.004 -0.014,-0.018 -0.406,-0.83 -12.009,-24.064 -22.585,-31.51"
               style="fill:#378085;fill-opacity:1;fill-rule:nonzero;stroke:none"
               id="path123363"
               inkscape:connector-curvature="0" /><path
               d="m 364.553,266.613 c 0.382,-0.082 0.848,-0.183 1.398,-0.305 -0.179,-0.02 -0.359,-0.025 -0.533,-0.015 -0.006,-0.004 -0.01,10e-4 -0.01,10e-4 -0.395,0.002 -0.767,0.057 -1.104,0.162 -1.456,0.448 -1.212,0.462 0.249,0.157"
               style="fill:#378085;fill-opacity:1;fill-rule:nonzero;stroke:none"
               id="path123365"
               inkscape:connector-curvature="0" /><path
               d="m 304.87,187.473 c -3.527,1.673 -5.186,6.201 -5.935,9.323 -0.059,0.24 -0.11,0.471 -0.158,0.695 -0.003,10e-4 -10e-4,0.006 -10e-4,0.006 -0.046,0.218 -0.088,0.429 -0.125,0.626 0.038,-0.023 0.078,-0.048 0.121,-0.067 0.837,-0.483 1.731,-0.964 2.678,-1.413 5.607,-2.659 16.316,-5.851 16.316,-5.851 0,0 -9.248,6.273 -14.855,8.932 -0.992,0.47 -1.973,0.878 -2.918,1.229 0.714,0.394 1.625,0.847 2.66,1.273 2.826,1.162 6.544,2.07 9.525,0.657 5.493,-2.606 11.682,-14.604 11.928,-15.086 0.007,-0.009 0.008,-0.015 0.008,-0.015 0,0 -0.003,10e-4 -0.01,0 -0.473,-0.104 -13.728,-2.92 -19.234,-0.309"
               style="fill:#378085;fill-opacity:1;fill-rule:nonzero;stroke:none"
               id="path123367"
               inkscape:connector-curvature="0" /><path
               d="m 298.772,198.056 c 0.032,-0.228 0.068,-0.504 0.111,-0.832 -0.042,0.084 -0.078,0.174 -0.106,0.267 -0.003,10e-4 -10e-4,0.006 -10e-4,0.006 -0.071,0.203 -0.113,0.414 -0.125,0.626 -0.052,0.915 -0.001,0.796 0.121,-0.067"
               style="fill:#378085;fill-opacity:1;fill-rule:nonzero;stroke:none"
               id="path123369"
               inkscape:connector-curvature="0" /><path
               d="m 352.014,208.832 c -4.493,2.116 -7.012,7.04 -8.265,10.395 -0.097,0.256 -0.185,0.504 -0.267,0.745 -0.003,0.001 -0.002,0.006 -0.002,0.006 -0.08,0.233 -0.154,0.459 -0.22,0.67 0.048,-0.028 0.1,-0.058 0.155,-0.084 1.075,-0.591 2.22,-1.189 3.426,-1.756 7.141,-3.365 20.58,-7.81 20.58,-7.81 0,0 -11.985,7.53 -19.127,10.895 -1.264,0.595 -2.508,1.123 -3.7,1.588 0.83,0.34 1.894,0.723 3.115,1.064 3.328,0.931 7.776,1.504 11.572,-0.284 6.998,-3.297 15.863,-16.525 16.215,-17.057 0.01,-0.01 0.012,-0.016 0.012,-0.016 0,0 -0.004,0.002 -0.014,0.001 -0.566,-0.061 -16.467,-1.661 -23.48,1.643"
               style="fill:#378085;fill-opacity:1;fill-rule:nonzero;stroke:none"
               id="path123371"
               inkscape:connector-curvature="0" /><path
               d="m 343.415,220.564 c 0.062,-0.241 0.137,-0.536 0.225,-0.884 -0.061,0.092 -0.115,0.191 -0.158,0.292 -0.003,0.001 -0.002,0.006 -0.002,0.006 -0.109,0.22 -0.183,0.446 -0.22,0.67 -0.163,0.966 -0.087,0.835 0.155,-0.084"
               style="fill:#378085;fill-opacity:1;fill-rule:nonzero;stroke:none"
               id="path123373"
               inkscape:connector-curvature="0" /><path
               d="m 323.295,197.291 c -4.408,4.383 -4.939,11.619 -4.732,16.375 0.014,0.366 0.036,0.716 0.059,1.053 -0.004,0.004 10e-4,0.009 10e-4,0.009 0.023,0.328 0.05,0.644 0.077,0.94 0.045,-0.055 0.094,-0.112 0.148,-0.166 1.011,-1.157 2.104,-2.349 3.287,-3.525 7.007,-6.967 21.17,-17.668 21.17,-17.668 0,0 -10.781,14.103 -17.787,21.07 -1.241,1.233 -2.491,2.373 -3.709,3.414 1.193,0.124 2.696,0.216 4.37,0.196 4.562,-0.051 10.311,-0.979 14.036,-4.682 6.866,-6.828 10.861,-27.051 11.017,-27.863 0.007,-0.016 0.006,-0.025 0.006,-0.025 0,0 -0.004,0.004 -0.015,0.007 -0.727,0.133 -21.047,4.022 -27.928,10.865"
               style="fill:#378085;fill-opacity:1;fill-rule:nonzero;stroke:none"
               id="path123375"
               inkscape:connector-curvature="0" /><path
               d="m 318.848,215.502 c -0.049,-0.331 -0.111,-0.736 -0.184,-1.214 -0.026,0.141 -0.04,0.287 -0.042,0.431 -0.004,0.004 10e-4,0.009 10e-4,0.009 -0.019,0.323 0.007,0.639 0.077,0.94 0.303,1.296 0.327,1.1 0.148,-0.166"
               style="fill:#378085;fill-opacity:1;fill-rule:nonzero;stroke:none"
               id="path123377"
               inkscape:connector-curvature="0" /><path
               d="m 366.764,231.684 c -5.619,-2.658 -12.005,-1.97 -15.964,-1.101 -0.305,0.066 -0.594,0.135 -0.87,0.203 -0.005,-0.002 -0.007,0.002 -0.007,0.002 -0.27,0.067 -0.527,0.134 -0.767,0.199 0.065,0.026 0.135,0.054 0.203,0.086 1.419,0.587 2.902,1.23 4.41,1.944 8.933,4.223 24.111,13.269 24.111,13.269 0,0 -16.623,-5.99 -25.556,-10.214 -1.581,-0.748 -3.087,-1.517 -4.495,-2.278 0.406,0.917 0.972,2.061 1.706,3.316 2,3.425 5.254,7.611 10.003,9.856 8.753,4.138 27.676,4.106 28.434,4.102 0.016,0.002 0.023,0 0.023,0 0,0 -0.005,-0.002 -0.013,-0.011 -0.423,-0.526 -12.446,-15.226 -21.218,-19.373"
               style="fill:#378085;fill-opacity:1;fill-rule:nonzero;stroke:none"
               id="path123379"
               inkscape:connector-curvature="0" /><path
               d="m 349.359,231.073 c 0.261,-0.087 0.58,-0.193 0.955,-0.32 -0.13,0.001 -0.261,0.013 -0.384,0.033 -0.005,-0.002 -0.007,0.002 -0.007,0.002 -0.284,0.034 -0.542,0.101 -0.767,0.199 -0.973,0.422 -0.796,0.411 0.203,0.086"
               style="fill:#378085;fill-opacity:1;fill-rule:nonzero;stroke:none"
               id="path123381"
               inkscape:connector-curvature="0" /><path
               d="m 343.377,364.928 c 1.452,-6.044 -0.527,-12.154 -2.188,-15.852 -0.126,-0.285 -0.252,-0.553 -0.376,-0.81 0.001,-0.005 -0.003,-0.006 -0.003,-0.006 -0.121,-0.25 -0.24,-0.489 -0.352,-0.71 -0.012,0.069 -0.025,0.143 -0.043,0.217 -0.284,1.509 -0.61,3.091 -1,4.713 -2.308,9.608 -8.059,26.315 -8.059,26.315 0,0 2.465,-17.496 4.773,-27.104 0.408,-1.701 0.853,-3.332 1.31,-4.866 -0.814,0.585 -1.819,1.373 -2.898,2.348 -2.942,2.659 -6.374,6.7 -7.601,11.807 -2.261,9.415 1.64,27.931 1.799,28.672 0.001,0.016 0.004,0.023 0.004,0.023 0,0 0.001,-0.005 0.009,-0.015 0.428,-0.522 12.359,-15.297 14.625,-24.732"
               style="fill:#378085;fill-opacity:1;fill-rule:nonzero;stroke:none"
               id="path123383"
               inkscape:connector-curvature="0" /><path
               d="m 340.415,347.767 c 0.139,0.238 0.309,0.527 0.509,0.869 -0.028,-0.128 -0.066,-0.254 -0.111,-0.37 0.001,-0.005 -0.003,-0.006 -0.003,-0.006 -0.091,-0.271 -0.21,-0.51 -0.352,-0.71 -0.612,-0.866 -0.565,-0.695 -0.043,0.217"
               style="fill:#378085;fill-opacity:1;fill-rule:nonzero;stroke:none"
               id="path123385"
               inkscape:connector-curvature="0" /><path
               d="m 330.421,279.128 c -1.541,-6.022 -6.146,-10.5 -9.341,-12.993 -0.245,-0.193 -0.482,-0.371 -0.712,-0.54 -10e-4,-0.005 -0.006,-0.004 -0.006,-0.004 -0.223,-0.165 -0.439,-0.321 -0.642,-0.464 0.021,0.067 0.045,0.139 0.063,0.212 0.454,1.467 0.905,3.018 1.319,4.635 2.448,9.573 5.169,27.031 5.169,27.031 0,0 -5.996,-16.621 -8.444,-26.193 -0.433,-1.695 -0.802,-3.346 -1.115,-4.915 -0.446,0.897 -0.967,2.063 -1.465,3.43 -1.36,3.725 -2.506,8.902 -1.204,13.99 2.399,9.38 14.5,23.929 14.986,24.51 0.009,0.014 0.015,0.018 0.015,0.018 0,0 -10e-4,-0.005 0.001,-0.017 0.134,-0.662 3.78,-19.299 1.376,-28.7"
               style="fill:#378085;fill-opacity:1;fill-rule:nonzero;stroke:none"
               id="path123387"
               inkscape:connector-curvature="0" /><path
               d="m 319.783,265.339 c 0.234,0.146 0.52,0.323 0.857,0.531 -0.085,-0.101 -0.177,-0.194 -0.272,-0.275 -10e-4,-0.005 -0.006,-0.004 -0.006,-0.004 -0.207,-0.197 -0.423,-0.353 -0.642,-0.464 -0.947,-0.48 -0.824,-0.35 0.063,0.212"
               style="fill:#378085;fill-opacity:1;fill-rule:nonzero;stroke:none"
               id="path123389"
               inkscape:connector-curvature="0" /><path
               d="m 307.987,376.953 c -0.346,-6.206 -4.262,-11.475 -7.111,-14.529 -0.218,-0.236 -0.431,-0.455 -0.637,-0.665 -10e-4,-0.005 -0.006,-0.005 -0.006,-0.005 -0.201,-0.204 -0.396,-0.398 -0.581,-0.576 0.009,0.069 0.019,0.144 0.023,0.219 0.167,1.527 0.313,3.136 0.407,4.802 0.551,9.865 -0.288,27.528 -0.288,27.528 0,0 -2.802,-17.459 -3.354,-27.325 -0.097,-1.746 -0.135,-3.437 -0.132,-5.038 -0.663,0.798 -1.461,1.844 -2.28,3.093 -2.231,3.401 -4.545,8.269 -4.252,13.513 0.54,9.667 10.24,26.245 10.63,26.908 0.006,0.016 0.012,0.021 0.012,0.021 0,0 -0.001,-0.005 0.004,-0.017 0.283,-0.625 8.106,-18.24 7.565,-27.929"
               style="fill:#378085;fill-opacity:1;fill-rule:nonzero;stroke:none"
               id="path123391"
               inkscape:connector-curvature="0" /><path
               d="m 299.675,361.397 c 0.216,0.187 0.479,0.416 0.792,0.684 -0.068,-0.115 -0.146,-0.224 -0.228,-0.322 -10e-4,-0.005 -0.006,-0.005 -0.006,-0.005 -0.176,-0.233 -0.372,-0.426 -0.581,-0.576 -0.898,-0.651 -0.797,-0.5 0.023,0.219"
               style="fill:#378085;fill-opacity:1;fill-rule:nonzero;stroke:none"
               id="path123393"
               inkscape:connector-curvature="0" /><path
               d="m 258.065,326.139 c -1.541,-6.023 -6.145,-10.5 -9.34,-12.993 -0.246,-0.193 -0.482,-0.372 -0.712,-0.541 -0.001,-0.005 -0.006,-0.004 -0.006,-0.004 -0.223,-0.165 -0.44,-0.321 -0.643,-0.463 0.022,0.067 0.046,0.138 0.064,0.211 0.454,1.467 0.905,3.019 1.318,4.635 2.448,9.573 5.17,27.032 5.17,27.032 0,0 -5.996,-16.621 -8.444,-26.194 -0.434,-1.695 -0.802,-3.345 -1.116,-4.915 -0.446,0.898 -0.966,2.064 -1.464,3.43 -1.36,3.726 -2.506,8.902 -1.204,13.991 2.399,9.38 14.5,23.928 14.986,24.509 0.009,0.015 0.014,0.018 0.014,0.018 0,0 0,-0.005 0.001,-0.016 0.134,-0.663 3.781,-19.299 1.376,-28.7"
               style="fill:#378085;fill-opacity:1;fill-rule:nonzero;stroke:none"
               id="path123395"
               inkscape:connector-curvature="0" /><path
               d="m 247.428,312.349 c 0.234,0.146 0.519,0.323 0.856,0.531 -0.084,-0.1 -0.177,-0.193 -0.271,-0.275 -0.001,-0.005 -0.006,-0.004 -0.006,-0.004 -0.207,-0.197 -0.424,-0.352 -0.643,-0.463 -0.946,-0.48 -0.824,-0.35 0.064,0.211"
               style="fill:#378085;fill-opacity:1;fill-rule:nonzero;stroke:none"
               id="path123397"
               inkscape:connector-curvature="0" /><path
               d="m 305.401,266.042 c -1.095,-6.119 -6.496,-10.719 -10.341,-13.289 -0.295,-0.199 -0.581,-0.383 -0.859,-0.557 -0.001,-0.006 -0.007,-0.005 -0.007,-0.005 -0.27,-0.17 -0.532,-0.331 -0.779,-0.478 0.019,0.068 0.038,0.141 0.051,0.215 0.371,1.492 0.724,3.069 1.018,4.712 1.742,9.726 2.603,27.44 2.603,27.44 0,0 -5.335,-16.913 -7.076,-26.64 -0.308,-1.722 -0.537,-3.398 -0.705,-4.991 -0.734,0.902 -1.607,2.075 -2.483,3.451 -2.388,3.752 -4.721,8.975 -3.797,14.146 1.706,9.531 15.462,24.433 16.016,25.029 0.01,0.014 0.017,0.019 0.017,0.019 0,0 -0.001,-0.006 0.003,-0.017 0.283,-0.669 8.048,-19.484 6.339,-29.035"
               style="fill:#378085;fill-opacity:1;fill-rule:nonzero;stroke:none"
               id="path123399"
               inkscape:connector-curvature="0" /><path
               d="m 293.466,251.928 c 0.287,0.151 0.638,0.335 1.052,0.55 -0.096,-0.103 -0.205,-0.198 -0.317,-0.282 -0.001,-0.006 -0.007,-0.005 -0.007,-0.005 -0.244,-0.202 -0.506,-0.362 -0.779,-0.478 -1.179,-0.5 -1.038,-0.366 0.051,0.215"
               style="fill:#378085;fill-opacity:1;fill-rule:nonzero;stroke:none"
               id="path123401"
               inkscape:connector-curvature="0" /><path
               d="m 325.376,338.986 c 0.361,-6.205 -3.819,-11.937 -6.959,-15.333 -0.24,-0.262 -0.476,-0.507 -0.705,-0.741 0,-0.006 -0.006,-0.006 -0.006,-0.006 -0.224,-0.229 -0.44,-0.447 -0.646,-0.647 0.002,0.07 0.003,0.146 0,0.221 0.012,1.537 -0.011,3.153 -0.109,4.819 -0.574,9.864 -3.864,27.291 -3.864,27.291 0,0 -1.247,-17.691 -0.673,-27.555 0.102,-1.746 0.271,-3.43 0.478,-5.019 -0.923,0.707 -2.046,1.644 -3.218,2.778 -3.197,3.092 -6.685,7.627 -6.989,12.872 -0.563,9.665 9.34,27.363 9.74,28.071 0.006,0.017 0.012,0.023 0.012,0.023 0,0 0,-0.006 0.006,-0.016 0.431,-0.584 12.37,-17.071 12.933,-26.758"
               style="fill:#378085;fill-opacity:1;fill-rule:nonzero;stroke:none"
               id="path123403"
               inkscape:connector-curvature="0" /><path
               d="m 317.06,322.48 c 0.243,0.213 0.541,0.474 0.894,0.78 -0.069,-0.123 -0.152,-0.241 -0.242,-0.348 0,-0.006 -0.006,-0.006 -0.006,-0.006 -0.19,-0.254 -0.407,-0.471 -0.646,-0.647 -1.031,-0.761 -0.925,-0.598 0,0.221"
               style="fill:#378085;fill-opacity:1;fill-rule:nonzero;stroke:none"
               id="path123405"
               inkscape:connector-curvature="0" /><path
               d="m 355.168,281.35 c -1.153,-3.85 -5.1,-6.365 -7.86,-7.702 -0.212,-0.104 -0.416,-0.198 -0.615,-0.288 -0.002,-0.003 -0.005,-0.002 -0.005,-0.002 -0.194,-0.087 -0.381,-0.17 -0.557,-0.244 0.017,0.042 0.035,0.088 0.049,0.135 0.351,0.93 0.696,1.916 1.006,2.949 1.834,6.119 3.62,17.453 3.62,17.453 0,0 -4.741,-10.449 -6.574,-16.568 -0.325,-1.083 -0.592,-2.144 -0.814,-3.156 -0.432,0.642 -0.939,1.469 -1.434,2.427 -1.351,2.613 -2.564,6.169 -1.589,9.422 1.795,5.996 12.061,14.455 12.474,14.792 0.007,0.01 0.013,0.012 0.013,0.012 0,0 -0.001,-0.004 10e-4,-0.012 0.144,-0.453 4.085,-13.209 2.285,-19.218"
               style="fill:#378085;fill-opacity:1;fill-rule:nonzero;stroke:none"
               id="path123407"
               inkscape:connector-curvature="0" /><path
               d="m 346.18,273.249 c 0.203,0.073 0.452,0.162 0.745,0.267 -0.071,-0.058 -0.151,-0.111 -0.232,-0.156 -0.002,-0.003 -0.005,-0.002 -0.005,-0.002 -0.178,-0.11 -0.365,-0.192 -0.557,-0.244 -0.826,-0.224 -0.723,-0.15 0.049,0.135"
               style="fill:#378085;fill-opacity:1;fill-rule:nonzero;stroke:none"
               id="path123409"
               inkscape:connector-curvature="0" /><path
               d="m 401.611,320.786 c 0.645,-3.967 -1.804,-7.953 -3.703,-10.363 -0.145,-0.186 -0.288,-0.36 -0.428,-0.527 10e-4,-0.004 -0.003,-0.005 -0.003,-0.005 -0.136,-0.163 -0.268,-0.318 -0.394,-0.462 -0.003,0.045 -0.007,0.094 -0.015,0.142 -0.09,0.99 -0.211,2.028 -0.384,3.092 -1.025,6.305 -4.371,17.28 -4.371,17.28 0,0 0.302,-11.47 1.328,-17.775 0.181,-1.116 0.403,-2.187 0.646,-3.194 -0.669,0.388 -1.486,0.911 -2.35,1.557 -2.358,1.76 -5.002,4.427 -5.547,7.779 -1.005,6.178 4.531,18.273 4.755,18.757 0.002,0.011 0.006,0.016 0.006,0.016 0,0 0,-0.004 0.006,-0.01 0.328,-0.345 9.447,-10.096 10.454,-16.287"
               style="fill:#378085;fill-opacity:1;fill-rule:nonzero;stroke:none"
               id="path123411"
               inkscape:connector-curvature="0" /><path
               d="m 397.068,309.571 c 0.151,0.155 0.335,0.344 0.553,0.566 -0.039,-0.084 -0.087,-0.166 -0.141,-0.241 10e-4,-0.004 -0.003,-0.005 -0.003,-0.005 -0.112,-0.177 -0.245,-0.332 -0.394,-0.462 -0.645,-0.563 -0.585,-0.451 -0.015,0.142"
               style="fill:#378085;fill-opacity:1;fill-rule:nonzero;stroke:none"
               id="path123413"
               inkscape:connector-curvature="0" /><path
               d="m 300.881,306.658 c -1.153,-3.85 -5.099,-6.365 -7.86,-7.702 -0.211,-0.104 -0.416,-0.199 -0.615,-0.289 -0.001,-0.003 -0.005,-10e-4 -0.005,-10e-4 -0.193,-0.088 -0.38,-0.17 -0.556,-0.244 0.016,0.042 0.035,0.087 0.049,0.134 0.351,0.93 0.696,1.916 1.005,2.949 1.833,6.12 3.621,17.453 3.621,17.453 0,0 -4.741,-10.449 -6.575,-16.568 -0.324,-1.083 -0.591,-2.143 -0.813,-3.155 -0.433,0.641 -0.94,1.469 -1.435,2.427 -1.35,2.613 -2.564,6.169 -1.59,9.421 1.797,5.996 12.063,14.456 12.476,14.793 0.007,0.009 0.012,0.011 0.012,0.011 0,0 -0.001,-0.003 10e-4,-0.011 0.144,-0.454 4.086,-13.209 2.285,-19.218"
               style="fill:#378085;fill-opacity:1;fill-rule:nonzero;stroke:none"
               id="path123415"
               inkscape:connector-curvature="0" /><path
               d="m 291.894,298.556 c 0.203,0.074 0.451,0.163 0.745,0.267 -0.073,-0.058 -0.152,-0.111 -0.233,-0.156 -0.001,-0.003 -0.005,-10e-4 -0.005,-10e-4 -0.177,-0.111 -0.365,-0.192 -0.556,-0.244 -0.827,-0.225 -0.724,-0.15 0.049,0.134"
               style="fill:#378085;fill-opacity:1;fill-rule:nonzero;stroke:none"
               id="path123417"
               inkscape:connector-curvature="0" /><path
               d="m 382.459,352.343 c 0.667,-3.963 -2.519,-8.091 -4.964,-10.605 -0.187,-0.194 -0.371,-0.377 -0.55,-0.551 0,-0.004 -0.005,-0.005 -0.005,-0.005 -0.174,-0.17 -0.345,-0.333 -0.506,-0.484 -0.002,0.046 -0.005,0.094 -0.013,0.143 -0.079,0.992 -0.194,2.031 -0.373,3.095 -1.061,6.299 -4.851,17.19 -4.851,17.19 0,0 -0.014,-11.532 1.046,-17.831 0.188,-1.115 0.428,-2.182 0.695,-3.185 -0.819,0.36 -1.819,0.848 -2.872,1.457 -2.874,1.661 -6.075,4.224 -6.638,7.572 -1.039,6.172 6.265,18.607 6.56,19.105 0.004,0.011 0.009,0.015 0.009,0.015 0,0 10e-4,-0.003 0.007,-0.009 0.396,-0.332 11.414,-9.722 12.455,-15.907"
               style="fill:#378085;fill-opacity:1;fill-rule:nonzero;stroke:none"
               id="path123419"
               inkscape:connector-curvature="0" /><path
               d="m 376.421,340.841 c 0.192,0.163 0.428,0.361 0.707,0.595 -0.051,-0.086 -0.114,-0.171 -0.183,-0.249 0,-0.004 -0.005,-0.005 -0.005,-0.005 -0.145,-0.183 -0.315,-0.346 -0.506,-0.484 -0.824,-0.597 -0.744,-0.481 -0.013,0.143"
               style="fill:#378085;fill-opacity:1;fill-rule:nonzero;stroke:none"
               id="path123421"
               inkscape:connector-curvature="0" /><path
               d="m 376.203,308.816 c -1.513,-5.049 -5.774,-8.622 -8.721,-10.578 -0.226,-0.152 -0.444,-0.291 -0.655,-0.423 -0.002,-0.004 -0.006,-0.003 -0.006,-0.003 -0.206,-0.129 -0.405,-0.25 -0.592,-0.361 0.022,0.056 0.044,0.115 0.062,0.177 0.44,1.226 0.879,2.523 1.284,3.879 2.405,8.026 5.208,22.754 5.208,22.754 0,0 -5.757,-13.844 -8.161,-21.869 -0.426,-1.421 -0.792,-2.808 -1.105,-4.128 -0.389,0.788 -0.837,1.808 -1.263,2.998 -1.162,3.245 -2.102,7.714 -0.823,11.98 2.355,7.864 13.609,19.622 14.062,20.092 0.008,0.012 0.014,0.015 0.014,0.015 0,0 -0.002,-0.004 0,-0.015 0.109,-0.57 3.057,-16.636 0.696,-24.518"
               style="fill:#378085;fill-opacity:1;fill-rule:nonzero;stroke:none"
               id="path123423"
               inkscape:connector-curvature="0" /><path
               d="m 366.291,297.628 c 0.215,0.112 0.478,0.247 0.787,0.407 -0.079,-0.081 -0.164,-0.156 -0.251,-0.22 -0.002,-0.004 -0.006,-0.003 -0.006,-0.003 -0.191,-0.157 -0.39,-0.278 -0.592,-0.361 -0.867,-0.359 -0.754,-0.255 0.062,0.177"
               style="fill:#378085;fill-opacity:1;fill-rule:nonzero;stroke:none"
               id="path123425"
               inkscape:connector-curvature="0" /><path
               d="m 316.953,301.408 c -1.004,-3.352 -4.009,-5.673 -6.093,-6.933 -0.16,-0.098 -0.315,-0.187 -0.464,-0.272 -0.001,-0.003 -0.004,-0.002 -0.004,-0.002 -0.146,-0.083 -0.288,-0.161 -0.419,-0.232 0.013,0.036 0.029,0.076 0.041,0.117 0.296,0.813 0.59,1.674 0.859,2.574 1.597,5.329 3.371,15.135 3.371,15.135 0,0 -3.911,-9.166 -5.508,-14.495 -0.282,-0.944 -0.522,-1.865 -0.726,-2.743 -0.292,0.533 -0.631,1.223 -0.956,2.026 -0.889,2.189 -1.637,5.194 -0.787,8.027 1.564,5.222 9.458,12.904 9.775,13.21 0.006,0.008 0.01,0.01 0.01,0.01 0,0 -0.001,-0.003 10e-4,-0.01 0.087,-0.383 2.468,-11.178 0.9,-16.412"
               style="fill:#378085;fill-opacity:1;fill-rule:nonzero;stroke:none"
               id="path123427"
               inkscape:connector-curvature="0" /><path
               d="m 310.014,294.086 c 0.152,0.071 0.339,0.158 0.558,0.26 -0.054,-0.054 -0.115,-0.102 -0.176,-0.143 -0.001,-0.003 -0.004,-0.002 -0.004,-0.002 -0.135,-0.102 -0.277,-0.18 -0.419,-0.232 -0.618,-0.227 -0.538,-0.158 0.041,0.117"
               style="fill:#378085;fill-opacity:1;fill-rule:nonzero;stroke:none"
               id="path123429"
               inkscape:connector-curvature="0" /><path
               d="m 267.05,367.747 c 0.219,-3.493 -1.796,-6.71 -3.316,-8.615 -0.116,-0.147 -0.23,-0.284 -0.341,-0.416 0.001,-0.003 -0.003,-0.003 -0.003,-0.003 -0.108,-0.129 -0.213,-0.251 -0.313,-0.363 0,0.04 10e-4,0.082 -0.002,0.125 -0.004,0.865 -0.026,1.774 -0.085,2.712 -0.347,5.552 -2.079,15.366 -2.079,15.366 0,0 -0.495,-9.953 -0.147,-15.506 0.061,-0.983 0.155,-1.93 0.268,-2.825 -0.459,0.4 -1.015,0.929 -1.598,1.57 -1.592,1.746 -3.334,4.306 -3.519,7.258 -0.341,5.44 4.405,15.38 4.597,15.778 0.003,0.009 0.006,0.012 0.006,0.012 0,0 0,-0.003 0.003,-0.008 0.215,-0.33 6.188,-9.632 6.529,-15.085"
               style="fill:#378085;fill-opacity:1;fill-rule:nonzero;stroke:none"
               id="path123431"
               inkscape:connector-curvature="0" /><path
               d="m 263.075,358.475 c 0.118,0.119 0.263,0.265 0.435,0.437 -0.033,-0.069 -0.073,-0.136 -0.117,-0.196 0.001,-0.003 -0.003,-0.003 -0.003,-0.003 -0.091,-0.143 -0.197,-0.264 -0.313,-0.363 -0.501,-0.426 -0.45,-0.335 -0.002,0.125"
               style="fill:#378085;fill-opacity:1;fill-rule:nonzero;stroke:none"
               id="path123433"
               inkscape:connector-curvature="0" /><path
               d="m 395.359,252.27 c -3.468,0.462 -6.234,3.063 -7.808,4.922 -0.122,0.142 -0.235,0.281 -0.342,0.415 -0.003,10e-4 -0.003,0.004 -0.003,0.004 -0.104,0.131 -0.204,0.258 -0.295,0.377 0.038,-0.008 0.08,-0.017 0.122,-0.022 0.85,-0.164 1.746,-0.319 2.677,-0.443 5.515,-0.734 15.478,-0.937 15.478,-0.937 0,0 -9.668,2.414 -15.183,3.149 -0.977,0.13 -1.924,0.222 -2.823,0.285 0.48,0.372 1.108,0.816 1.849,1.264 2.022,1.222 4.87,2.436 7.802,2.045 5.404,-0.72 14.236,-7.302 14.589,-7.567 0.009,-0.004 0.011,-0.008 0.011,-0.008 0,0 -0.003,0.001 -0.009,-0.002 -0.365,-0.147 -10.649,-4.204 -16.065,-3.482"
               style="fill:#378085;fill-opacity:1;fill-rule:nonzero;stroke:none"
               id="path123435"
               inkscape:connector-curvature="0" /><path
               d="m 387.033,257.966 c 0.095,-0.139 0.209,-0.31 0.345,-0.511 -0.062,0.046 -0.118,0.098 -0.169,0.152 -0.003,10e-4 -0.003,0.004 -0.003,0.004 -0.122,0.117 -0.221,0.244 -0.295,0.377 -0.321,0.574 -0.241,0.507 0.122,-0.022"
               style="fill:#378085;fill-opacity:1;fill-rule:nonzero;stroke:none"
               id="path123437"
               inkscape:connector-curvature="0" /><path
               d="m 360.9,369.854 c -1.004,-3.353 -4.007,-5.673 -6.092,-6.934 -0.161,-0.097 -0.316,-0.187 -0.465,-0.272 -0.001,-0.003 -0.004,-0.002 -0.004,-0.002 -0.146,-0.083 -0.287,-0.161 -0.419,-0.232 0.014,0.037 0.029,0.077 0.041,0.118 0.296,0.812 0.59,1.673 0.859,2.573 1.598,5.33 3.371,15.136 3.371,15.136 0,0 -3.911,-9.166 -5.507,-14.495 -0.283,-0.944 -0.523,-1.866 -0.727,-2.744 -0.292,0.534 -0.631,1.224 -0.956,2.027 -0.888,2.189 -1.637,5.194 -0.787,8.027 1.564,5.222 9.458,12.903 9.776,13.21 0.005,0.007 0.009,0.009 0.009,0.009 0,0 -0.001,-0.003 10e-4,-0.009 0.088,-0.384 2.469,-11.179 0.9,-16.412"
               style="fill:#378085;fill-opacity:1;fill-rule:nonzero;stroke:none"
               id="path123439"
               inkscape:connector-curvature="0" /><path
               d="m 353.961,362.532 c 0.152,0.071 0.339,0.157 0.559,0.259 -0.055,-0.053 -0.116,-0.102 -0.177,-0.143 -0.001,-0.003 -0.004,-0.002 -0.004,-0.002 -0.135,-0.102 -0.276,-0.18 -0.419,-0.232 -0.617,-0.226 -0.538,-0.158 0.041,0.118"
               style="fill:#378085;fill-opacity:1;fill-rule:nonzero;stroke:none"
               id="path123441"
               inkscape:connector-curvature="0" /><path
               d="m 321.171,373.928 c -0.837,-2.796 -3.694,-4.626 -5.693,-5.6 -0.154,-0.075 -0.302,-0.144 -0.446,-0.209 -10e-4,-0.003 -0.004,-0.002 -0.004,-0.002 -0.14,-0.063 -0.276,-0.123 -0.403,-0.177 0.013,0.03 0.025,0.063 0.036,0.097 0.254,0.676 0.505,1.392 0.73,2.143 1.332,4.445 2.633,12.677 2.633,12.677 0,0 -3.438,-7.592 -4.77,-12.037 -0.235,-0.787 -0.431,-1.557 -0.592,-2.292 -0.311,0.465 -0.678,1.066 -1.035,1.761 -0.976,1.897 -1.851,4.478 -1.143,6.841 1.305,4.356 8.741,10.507 9.04,10.753 0.005,0.006 0.009,0.008 0.009,0.008 0,0 -0.001,-0.003 0,-0.008 0.105,-0.33 2.946,-9.59 1.638,-13.955"
               style="fill:#378085;fill-opacity:1;fill-rule:nonzero;stroke:none"
               id="path123443"
               inkscape:connector-curvature="0" /><path
               d="m 314.661,368.037 c 0.147,0.054 0.326,0.119 0.539,0.195 -0.053,-0.043 -0.109,-0.081 -0.168,-0.113 -10e-4,-0.003 -0.004,-0.002 -0.004,-0.002 -0.129,-0.08 -0.264,-0.139 -0.403,-0.177 -0.599,-0.164 -0.523,-0.11 0.036,0.097"
               style="fill:#378085;fill-opacity:1;fill-rule:nonzero;stroke:none"
               id="path123445"
               inkscape:connector-curvature="0" /><path
               d="m 212.004,301.562 c 0,-8.286 5.065,-15.589 8.809,-19.865 0.288,-0.33 0.567,-0.638 0.84,-0.932 0,-0.008 0.007,-0.008 0.007,-0.008 0.266,-0.286 0.524,-0.559 0.768,-0.81 -0.007,0.093 -0.014,0.194 -0.014,0.294 -0.115,2.045 -0.194,4.197 -0.194,6.421 0,13.171 2.553,36.615 2.553,36.615 0,0 2.555,-23.444 2.555,-36.615 0,-2.332 -0.079,-4.584 -0.208,-6.715 0.989,1.011 2.188,2.345 3.429,3.946 3.386,4.361 7.001,10.667 7.001,17.669 0,12.906 -12.267,35.69 -12.762,36.601 -0.007,0.022 -0.015,0.029 -0.015,0.029 0,0 0,-0.007 -0.006,-0.022 -0.445,-0.811 -12.763,-23.673 -12.763,-36.608"
               style="fill:#378085;fill-opacity:1;fill-rule:nonzero;stroke:none"
               id="path123447"
               inkscape:connector-curvature="0" /><path
               d="m 222.414,280.241 c -0.288,0.265 -0.639,0.588 -1.055,0.968 0.086,-0.157 0.186,-0.308 0.294,-0.444 0,-0.008 0.007,-0.008 0.007,-0.008 0.23,-0.322 0.488,-0.595 0.768,-0.81 1.205,-0.933 1.076,-0.725 -0.014,0.294"
               style="fill:#378085;fill-opacity:1;fill-rule:nonzero;stroke:none"
               id="path123449"
               inkscape:connector-curvature="0" /><path
               d="m 137.423,316.399 c 2.591,-7.87 9.685,-13.224 14.578,-16.114 0.376,-0.224 0.739,-0.43 1.089,-0.623 0.003,-0.007 0.01,-0.005 0.01,-0.005 0.341,-0.19 0.672,-0.368 0.982,-0.53 -0.036,0.086 -0.074,0.18 -0.105,0.275 -0.748,1.906 -1.497,3.926 -2.192,6.038 -4.118,12.511 -9.023,35.579 -9.023,35.579 0,0 9.757,-21.471 13.875,-33.982 0.729,-2.215 1.358,-4.379 1.902,-6.443 0.624,1.27 1.344,2.912 2.023,4.82 1.853,5.202 3.315,12.322 1.126,18.973 -4.035,12.259 -22.812,30.065 -23.566,30.776 -0.014,0.018 -0.023,0.022 -0.023,0.022 0,0 0.002,-0.007 0,-0.022 -0.169,-0.91 -4.721,-26.478 -0.676,-38.764"
               style="fill:#378085;fill-opacity:1;fill-rule:nonzero;stroke:none"
               id="path123451"
               inkscape:connector-curvature="0" /><path
               d="m 153.977,299.402 c -0.356,0.162 -0.791,0.359 -1.305,0.59 0.131,-0.123 0.274,-0.235 0.418,-0.33 0.003,-0.007 0.01,-0.005 0.01,-0.005 0.318,-0.235 0.649,-0.413 0.982,-0.53 1.437,-0.509 1.249,-0.352 -0.105,0.275"
               style="fill:#378085;fill-opacity:1;fill-rule:nonzero;stroke:none"
               id="path123453"
               inkscape:connector-curvature="0" /><path
               d="m 223.284,366.252 c -0.114,-8.285 4.85,-15.657 8.536,-19.983 0.283,-0.334 0.558,-0.646 0.826,-0.944 0,-0.008 0.008,-0.008 0.008,-0.008 0.261,-0.29 0.515,-0.567 0.756,-0.821 -0.006,0.094 -0.012,0.194 -0.01,0.295 -0.087,2.045 -0.136,4.199 -0.106,6.422 0.181,13.17 3.057,36.578 3.057,36.578 0,0 2.232,-23.478 2.05,-36.648 -0.031,-2.331 -0.141,-4.582 -0.3,-6.711 1.004,0.998 2.22,2.316 3.483,3.898 3.446,4.315 7.148,10.57 7.244,17.571 0.177,12.905 -11.775,35.856 -12.258,36.774 -0.007,0.021 -0.014,0.029 -0.014,0.029 0,0 0,-0.008 -0.007,-0.022 -0.456,-0.805 -13.087,-23.496 -13.265,-36.43"
               style="fill:#378085;fill-opacity:1;fill-rule:nonzero;stroke:none"
               id="path123455"
               inkscape:connector-curvature="0" /><path
               d="m 233.4,344.791 c -0.284,0.269 -0.63,0.597 -1.042,0.982 0.084,-0.159 0.183,-0.311 0.288,-0.448 0,-0.008 0.008,-0.008 0.008,-0.008 0.225,-0.325 0.479,-0.602 0.756,-0.821 1.193,-0.949 1.066,-0.739 -0.01,0.295"
               style="fill:#378085;fill-opacity:1;fill-rule:nonzero;stroke:none"
               id="path123457"
               inkscape:connector-curvature="0" /><path
               d="m 106.845,270.376 c 6.775,-4.771 15.662,-4.833 21.314,-4.232 0.435,0.044 0.849,0.095 1.246,0.149 0.006,-0.004 0.01,10e-4 0.01,10e-4 0.388,0.052 0.759,0.106 1.105,0.162 -0.081,0.047 -0.167,0.099 -0.249,0.157 -1.738,1.083 -3.543,2.258 -5.361,3.538 -10.77,7.582 -28.47,23.167 -28.47,23.167 0,0 20.64,-11.408 31.41,-18.99 1.906,-1.343 3.703,-2.704 5.371,-4.036 -0.258,1.392 -0.659,3.139 -1.252,5.075 -1.617,5.28 -4.692,11.866 -10.417,15.897 -10.553,7.43 -36.245,10.516 -37.275,10.635 -0.022,0.007 -0.032,0.005 -0.032,0.005 0,0 0.006,-0.004 0.013,-0.018 0.408,-0.83 12.011,-24.064 22.587,-31.51"
               style="fill:#378085;fill-opacity:1;fill-rule:nonzero;stroke:none"
               id="path123459"
               inkscape:connector-curvature="0" /><path
               d="m 130.271,266.613 c -0.382,-0.082 -0.849,-0.183 -1.399,-0.305 0.179,-0.02 0.359,-0.025 0.533,-0.015 0.006,-0.004 0.01,10e-4 0.01,10e-4 0.396,0.002 0.768,0.057 1.105,0.162 1.456,0.448 1.211,0.462 -0.249,0.157"
               style="fill:#378085;fill-opacity:1;fill-rule:nonzero;stroke:none"
               id="path123461"
               inkscape:connector-curvature="0" /><path
               d="m 189.953,187.473 c 3.527,1.673 5.187,6.201 5.936,9.323 0.058,0.24 0.11,0.471 0.156,0.695 0.004,10e-4 0.001,0.006 0.001,0.006 0.047,0.218 0.089,0.429 0.126,0.626 -0.038,-0.023 -0.078,-0.048 -0.121,-0.067 -0.838,-0.483 -1.731,-0.964 -2.677,-1.413 -5.607,-2.659 -16.316,-5.851 -16.316,-5.851 0,0 9.248,6.273 14.855,8.932 0.992,0.47 1.973,0.878 2.917,1.229 -0.714,0.394 -1.624,0.847 -2.66,1.273 -2.825,1.162 -6.544,2.07 -9.524,0.657 -5.494,-2.606 -11.683,-14.604 -11.929,-15.086 -0.007,-0.009 -0.008,-0.015 -0.008,-0.015 0,0 0.003,10e-4 0.011,0 0.472,-0.104 13.728,-2.92 19.233,-0.309"
               style="fill:#378085;fill-opacity:1;fill-rule:nonzero;stroke:none"
               id="path123463"
               inkscape:connector-curvature="0" /><path
               d="m 196.051,198.056 c -0.031,-0.228 -0.068,-0.504 -0.111,-0.832 0.043,0.084 0.079,0.174 0.105,0.267 0.004,10e-4 0.001,0.006 0.001,0.006 0.072,0.203 0.115,0.414 0.126,0.626 0.053,0.915 0.001,0.796 -0.121,-0.067"
               style="fill:#378085;fill-opacity:1;fill-rule:nonzero;stroke:none"
               id="path123465"
               inkscape:connector-curvature="0" /><path
               d="m 142.81,208.832 c 4.492,2.116 7.011,7.04 8.264,10.395 0.097,0.256 0.185,0.504 0.267,0.745 0.004,0.001 0.002,0.006 0.002,0.006 0.08,0.233 0.155,0.459 0.221,0.67 -0.048,-0.028 -0.101,-0.058 -0.155,-0.084 -1.076,-0.591 -2.221,-1.189 -3.427,-1.756 -7.141,-3.365 -20.58,-7.81 -20.58,-7.81 0,0 11.986,7.53 19.127,10.895 1.264,0.595 2.509,1.123 3.7,1.588 -0.83,0.34 -1.894,0.723 -3.115,1.064 -3.328,0.931 -7.776,1.504 -11.572,-0.284 -6.998,-3.297 -15.862,-16.525 -16.215,-17.057 -0.01,-0.01 -0.012,-0.016 -0.012,-0.016 0,0 0.004,0.002 0.014,0.001 0.567,-0.061 16.467,-1.661 23.481,1.643"
               style="fill:#378085;fill-opacity:1;fill-rule:nonzero;stroke:none"
               id="path123467"
               inkscape:connector-curvature="0" /><path
               d="m 151.409,220.564 c -0.062,-0.241 -0.138,-0.536 -0.225,-0.884 0.061,0.092 0.114,0.191 0.157,0.292 0.004,0.001 0.002,0.006 0.002,0.006 0.11,0.22 0.184,0.446 0.221,0.67 0.163,0.966 0.087,0.835 -0.155,-0.084"
               style="fill:#378085;fill-opacity:1;fill-rule:nonzero;stroke:none"
               id="path123469"
               inkscape:connector-curvature="0" /><path
               d="m 171.528,197.291 c 4.409,4.383 4.939,11.619 4.733,16.375 -0.015,0.366 -0.036,0.716 -0.06,1.053 0.004,0.004 -0.001,0.009 -0.001,0.009 -0.023,0.328 -0.049,0.644 -0.077,0.94 -0.045,-0.055 -0.094,-0.112 -0.147,-0.166 -1.012,-1.157 -2.104,-2.349 -3.288,-3.525 -7.006,-6.967 -21.169,-17.668 -21.169,-17.668 0,0 10.78,14.103 17.787,21.07 1.24,1.233 2.49,2.373 3.71,3.414 -1.194,0.124 -2.698,0.216 -4.371,0.196 -4.563,-0.051 -10.312,-0.979 -14.037,-4.682 -6.865,-6.828 -10.86,-27.051 -11.017,-27.863 -0.007,-0.016 -0.006,-0.025 -0.006,-0.025 0,0 0.003,0.004 0.016,0.007 0.726,0.133 21.047,4.022 27.927,10.865"
               style="fill:#378085;fill-opacity:1;fill-rule:nonzero;stroke:none"
               id="path123471"
               inkscape:connector-curvature="0" /><path
               d="m 175.976,215.502 c 0.049,-0.331 0.11,-0.736 0.183,-1.214 0.027,0.141 0.041,0.287 0.042,0.431 0.004,0.004 -0.001,0.009 -0.001,0.009 0.02,0.323 -0.006,0.639 -0.077,0.94 -0.302,1.296 -0.328,1.1 -0.147,-0.166"
               style="fill:#378085;fill-opacity:1;fill-rule:nonzero;stroke:none"
               id="path123473"
               inkscape:connector-curvature="0" /><path
               d="m 128.06,231.684 c 5.619,-2.658 12.005,-1.97 15.964,-1.101 0.305,0.066 0.593,0.135 0.87,0.203 0.004,-0.002 0.006,0.002 0.006,0.002 0.27,0.067 0.528,0.134 0.767,0.199 -0.064,0.026 -0.135,0.054 -0.203,0.086 -1.419,0.587 -2.901,1.23 -4.409,1.944 -8.933,4.223 -24.112,13.269 -24.112,13.269 0,0 16.623,-5.99 25.557,-10.214 1.581,-0.748 3.086,-1.517 4.495,-2.278 -0.407,0.917 -0.973,2.061 -1.706,3.316 -2.001,3.425 -5.255,7.611 -10.004,9.856 -8.753,4.138 -27.676,4.106 -28.433,4.102 -0.017,0.002 -0.024,0 -0.024,0 0,0 0.005,-0.002 0.013,-0.011 0.424,-0.526 12.446,-15.226 21.219,-19.373"
               style="fill:#378085;fill-opacity:1;fill-rule:nonzero;stroke:none"
               id="path123475"
               inkscape:connector-curvature="0" /><path
               d="m 145.464,231.073 c -0.261,-0.087 -0.58,-0.193 -0.955,-0.32 0.131,0.001 0.262,0.013 0.385,0.033 0.004,-0.002 0.006,0.002 0.006,0.002 0.285,0.034 0.542,0.101 0.767,0.199 0.974,0.422 0.796,0.411 -0.203,0.086"
               style="fill:#378085;fill-opacity:1;fill-rule:nonzero;stroke:none"
               id="path123477"
               inkscape:connector-curvature="0" /><path
               d="m 150.189,363.373 c -1.452,-6.045 0.527,-12.155 2.187,-15.852 0.127,-0.286 0.253,-0.554 0.377,-0.811 -10e-4,-0.005 0.004,-0.006 0.004,-0.006 0.12,-0.25 0.239,-0.489 0.351,-0.71 0.012,0.069 0.025,0.144 0.043,0.217 0.284,1.509 0.61,3.091 1,4.713 2.308,9.608 8.059,26.315 8.059,26.315 0,0 -2.465,-17.496 -4.772,-27.104 -0.409,-1.701 -0.855,-3.332 -1.311,-4.866 0.814,0.585 1.819,1.373 2.898,2.348 2.943,2.659 6.374,6.7 7.601,11.807 2.261,9.414 -1.64,27.931 -1.799,28.672 0,0.017 -0.004,0.023 -0.004,0.023 0,0 -0.001,-0.005 -0.009,-0.015 -0.427,-0.522 -12.359,-15.296 -14.625,-24.731"
               style="fill:#378085;fill-opacity:1;fill-rule:nonzero;stroke:none"
               id="path123479"
               inkscape:connector-curvature="0" /><path
               d="m 153.151,346.211 c -0.138,0.238 -0.308,0.528 -0.509,0.869 0.027,-0.128 0.066,-0.253 0.111,-0.37 -10e-4,-0.005 0.004,-0.006 0.004,-0.006 0.091,-0.271 0.209,-0.51 0.351,-0.71 0.613,-0.867 0.566,-0.695 0.043,0.217"
               style="fill:#378085;fill-opacity:1;fill-rule:nonzero;stroke:none"
               id="path123481"
               inkscape:connector-curvature="0" /><path
               d="m 187.313,375.302 c 2.241,-5.799 7.853,-9.504 11.698,-11.457 0.296,-0.151 0.58,-0.289 0.855,-0.42 0.002,-0.005 0.008,-0.003 0.008,-0.003 0.268,-0.127 0.527,-0.246 0.77,-0.354 -0.03,0.063 -0.063,0.132 -0.09,0.202 -0.635,1.399 -1.274,2.883 -1.875,4.439 -3.561,9.218 -8.064,26.333 -8.064,26.333 0,0 8.172,-15.698 11.733,-24.915 0.631,-1.632 1.183,-3.23 1.666,-4.757 0.438,0.983 0.937,2.249 1.396,3.713 1.253,3.992 2.145,9.408 0.253,14.308 -3.49,9.031 -18.461,21.572 -19.062,22.072 -0.011,0.013 -0.018,0.016 -0.018,0.016 0,0 0.001,-0.005 0,-0.017 -0.1,-0.691 -2.767,-20.108 0.73,-29.16"
               style="fill:#378085;fill-opacity:1;fill-rule:nonzero;stroke:none"
               id="path123483"
               inkscape:connector-curvature="0" /><path
               d="m 200.554,363.27 c -0.278,0.106 -0.617,0.234 -1.019,0.385 0.104,-0.087 0.217,-0.164 0.331,-0.23 0.002,-0.005 0.008,-0.003 0.008,-0.003 0.251,-0.162 0.511,-0.281 0.77,-0.354 1.118,-0.318 0.969,-0.209 -0.09,0.202"
               style="fill:#378085;fill-opacity:1;fill-rule:nonzero;stroke:none"
               id="path123485"
               inkscape:connector-curvature="0" /><path
               d="m 202.282,344.646 c -0.653,-6.181 2.104,-11.982 4.231,-15.433 0.163,-0.266 0.322,-0.515 0.479,-0.754 -10e-4,-0.005 0.004,-0.005 0.004,-0.005 0.152,-0.233 0.3,-0.454 0.441,-0.659 0.002,0.07 0.006,0.146 0.014,0.221 0.086,1.533 0.203,3.144 0.379,4.803 1.038,9.827 4.568,27.14 4.568,27.14 0,0 -0.169,-17.668 -1.207,-27.495 -0.184,-1.739 -0.414,-3.415 -0.667,-4.995 0.731,0.686 1.625,1.598 2.568,2.705 2.572,3.018 5.449,7.472 6.001,12.695 1.018,9.629 -5.258,27.48 -5.511,28.194 -0.003,0.017 -0.007,0.023 -0.007,0.023 0,0 -10e-4,-0.005 -0.007,-0.016 -0.357,-0.573 -10.265,-16.774 -11.286,-26.424"
               style="fill:#378085;fill-opacity:1;fill-rule:nonzero;stroke:none"
               id="path123487"
               inkscape:connector-curvature="0" /><path
               d="m 207.451,328.016 c -0.168,0.218 -0.374,0.483 -0.618,0.796 0.044,-0.124 0.099,-0.244 0.159,-0.353 -10e-4,-0.005 0.004,-0.005 0.004,-0.005 0.125,-0.257 0.274,-0.479 0.441,-0.659 0.719,-0.779 0.651,-0.615 0.014,0.221"
               style="fill:#378085;fill-opacity:1;fill-rule:nonzero;stroke:none"
               id="path123489"
               inkscape:connector-curvature="0" /><path
               d="m 264.697,390.352 c -0.55,-5.193 2.3,-10.123 4.481,-13.062 0.167,-0.227 0.331,-0.44 0.49,-0.644 0,-0.004 0.005,-0.004 0.005,-0.004 0.155,-0.199 0.307,-0.388 0.451,-0.562 0.002,0.059 0.004,0.123 0.01,0.186 0.06,1.289 0.151,2.643 0.298,4.037 0.873,8.255 4.107,22.77 4.107,22.77 0,0 0.127,-14.871 -0.746,-23.125 -0.154,-1.462 -0.355,-2.868 -0.581,-4.194 0.718,0.565 1.595,1.318 2.517,2.234 2.518,2.498 5.315,6.199 5.779,10.587 0.855,8.088 -5.708,23.22 -5.974,23.826 -0.003,0.014 -0.008,0.019 -0.008,0.019 0,0 0,-0.004 -0.005,-0.013 -0.347,-0.477 -9.967,-13.949 -10.824,-22.055"
               style="fill:#378085;fill-opacity:1;fill-rule:nonzero;stroke:none"
               id="path123491"
               inkscape:connector-curvature="0" /><path
               d="m 270.134,376.266 c -0.171,0.186 -0.381,0.413 -0.63,0.68 0.047,-0.105 0.102,-0.206 0.164,-0.3 0,-0.004 0.005,-0.004 0.005,-0.004 0.13,-0.219 0.281,-0.408 0.451,-0.562 0.731,-0.668 0.66,-0.529 0.01,0.186"
               style="fill:#378085;fill-opacity:1;fill-rule:nonzero;stroke:none"
               id="path123493"
               inkscape:connector-curvature="0" /><path
               d="m 164.403,279.128 c 1.54,-6.022 6.145,-10.5 9.341,-12.993 0.245,-0.193 0.482,-0.371 0.711,-0.54 10e-4,-0.005 0.006,-0.004 0.006,-0.004 0.224,-0.165 0.44,-0.321 0.643,-0.464 -0.022,0.067 -0.045,0.139 -0.064,0.212 -0.454,1.467 -0.904,3.018 -1.318,4.635 -2.449,9.573 -5.17,27.031 -5.17,27.031 0,0 5.996,-16.621 8.445,-26.193 0.433,-1.695 0.801,-3.346 1.114,-4.915 0.447,0.897 0.967,2.063 1.465,3.43 1.36,3.725 2.506,8.902 1.204,13.99 -2.399,9.38 -14.499,23.929 -14.986,24.51 -0.009,0.014 -0.015,0.018 -0.015,0.018 0,0 0.002,-0.005 0,-0.017 -0.134,-0.662 -3.781,-19.299 -1.376,-28.7"
               style="fill:#378085;fill-opacity:1;fill-rule:nonzero;stroke:none"
               id="path123495"
               inkscape:connector-curvature="0" /><path
               d="m 175.04,265.339 c -0.233,0.146 -0.519,0.323 -0.856,0.531 0.084,-0.101 0.177,-0.194 0.271,-0.275 10e-4,-0.005 0.006,-0.004 0.006,-0.004 0.207,-0.197 0.423,-0.353 0.643,-0.464 0.946,-0.48 0.824,-0.35 -0.064,0.212"
               style="fill:#378085;fill-opacity:1;fill-rule:nonzero;stroke:none"
               id="path123497"
               inkscape:connector-curvature="0" /><path
               d="m 189.422,266.042 c 1.095,-6.119 6.496,-10.719 10.342,-13.289 0.295,-0.199 0.58,-0.383 0.858,-0.557 10e-4,-0.006 0.007,-0.005 0.007,-0.005 0.27,-0.17 0.533,-0.331 0.78,-0.478 -0.019,0.068 -0.038,0.141 -0.052,0.215 -0.371,1.492 -0.724,3.069 -1.018,4.712 -1.741,9.726 -2.603,27.44 -2.603,27.44 0,0 5.336,-16.913 7.077,-26.64 0.308,-1.722 0.536,-3.398 0.705,-4.991 0.733,0.902 1.606,2.075 2.482,3.451 2.389,3.752 4.722,8.975 3.797,14.146 -1.706,9.531 -15.462,24.433 -16.016,25.029 -0.009,0.014 -0.016,0.019 -0.016,0.019 0,0 0.001,-0.006 -0.003,-0.017 -0.283,-0.669 -8.05,-19.484 -6.34,-29.035"
               style="fill:#378085;fill-opacity:1;fill-rule:nonzero;stroke:none"
               id="path123499"
               inkscape:connector-curvature="0" /><path
               d="m 201.357,251.928 c -0.286,0.151 -0.637,0.335 -1.051,0.55 0.096,-0.103 0.204,-0.198 0.316,-0.282 10e-4,-0.006 0.007,-0.005 0.007,-0.005 0.244,-0.202 0.506,-0.362 0.78,-0.478 1.178,-0.5 1.038,-0.366 -0.052,0.215"
               style="fill:#378085;fill-opacity:1;fill-rule:nonzero;stroke:none"
               id="path123501"
               inkscape:connector-curvature="0" /><path
               d="m 169.447,338.986 c -0.361,-6.205 3.82,-11.937 6.959,-15.333 0.241,-0.262 0.476,-0.507 0.705,-0.741 0,-0.006 0.007,-0.006 0.007,-0.006 0.223,-0.229 0.44,-0.447 0.646,-0.647 -0.002,0.07 -0.004,0.146 0,0.221 -0.013,1.537 0.011,3.153 0.108,4.819 0.574,9.864 3.865,27.291 3.865,27.291 0,0 1.246,-17.691 0.672,-27.555 -0.102,-1.746 -0.27,-3.43 -0.477,-5.019 0.923,0.707 2.045,1.644 3.217,2.778 3.198,3.092 6.685,7.627 6.99,12.872 0.563,9.665 -9.341,27.363 -9.741,28.071 -0.005,0.017 -0.011,0.023 -0.011,0.023 0,0 0,-0.006 -0.007,-0.016 -0.431,-0.584 -12.369,-17.071 -12.933,-26.758"
               style="fill:#378085;fill-opacity:1;fill-rule:nonzero;stroke:none"
               id="path123503"
               inkscape:connector-curvature="0" /><path
               d="m 177.764,322.48 c -0.243,0.213 -0.541,0.474 -0.894,0.78 0.069,-0.123 0.152,-0.241 0.241,-0.348 0,-0.006 0.007,-0.006 0.007,-0.006 0.189,-0.254 0.407,-0.471 0.646,-0.647 1.03,-0.761 0.924,-0.598 0,0.221"
               style="fill:#378085;fill-opacity:1;fill-rule:nonzero;stroke:none"
               id="path123505"
               inkscape:connector-curvature="0" /><path
               d="m 271.867,346.733 c 0.749,-6.17 5.883,-11.066 9.577,-13.85 0.284,-0.215 0.558,-0.414 0.826,-0.604 0.001,-0.006 0.006,-0.005 0.006,-0.005 0.261,-0.185 0.514,-0.36 0.752,-0.521 -0.014,0.068 -0.03,0.143 -0.04,0.217 -0.286,1.51 -0.55,3.105 -0.751,4.761 -1.19,9.81 -1.052,27.543 -1.052,27.543 0,0 4.374,-17.186 5.564,-26.995 0.211,-1.737 0.345,-3.423 0.423,-5.023 0.783,0.859 1.721,1.981 2.673,3.306 2.596,3.611 5.22,8.695 4.588,13.909 -1.167,9.612 -14.062,25.266 -14.581,25.891 -0.008,0.015 -0.015,0.02 -0.015,0.02 0,0 0.001,-0.005 -0.005,-0.017 -0.319,-0.651 -9.133,-18.999 -7.965,-28.632"
               style="fill:#378085;fill-opacity:1;fill-rule:nonzero;stroke:none"
               id="path123507"
               inkscape:connector-curvature="0" /><path
               d="m 282.988,331.97 c -0.277,0.167 -0.617,0.37 -1.018,0.609 0.09,-0.109 0.192,-0.21 0.3,-0.3 0.001,-0.006 0.006,-0.005 0.006,-0.005 0.233,-0.215 0.486,-0.391 0.752,-0.521 1.149,-0.565 1.016,-0.424 -0.04,0.217"
               style="fill:#378085;fill-opacity:1;fill-rule:nonzero;stroke:none"
               id="path123509"
               inkscape:connector-curvature="0" /><path
               d="m 139.656,281.35 c 1.153,-3.85 5.099,-6.365 7.86,-7.702 0.211,-0.104 0.416,-0.198 0.614,-0.288 0.002,-0.003 0.006,-0.002 0.006,-0.002 0.193,-0.087 0.381,-0.17 0.556,-0.244 -0.017,0.042 -0.035,0.088 -0.049,0.135 -0.351,0.93 -0.696,1.916 -1.005,2.949 -1.834,6.119 -3.62,17.453 -3.62,17.453 0,0 4.74,-10.449 6.573,-16.568 0.325,-1.083 0.593,-2.144 0.815,-3.156 0.431,0.642 0.938,1.469 1.433,2.427 1.351,2.613 2.565,6.169 1.59,9.422 -1.796,5.996 -12.062,14.455 -12.475,14.792 -0.007,0.01 -0.012,0.012 -0.012,0.012 0,0 0.001,-0.004 -0.001,-0.012 -0.145,-0.453 -4.086,-13.209 -2.285,-19.218"
               style="fill:#378085;fill-opacity:1;fill-rule:nonzero;stroke:none"
               id="path123511"
               inkscape:connector-curvature="0" /><path
               d="m 148.643,273.249 c -0.203,0.073 -0.451,0.162 -0.745,0.267 0.072,-0.058 0.151,-0.111 0.232,-0.156 0.002,-0.003 0.006,-0.002 0.006,-0.002 0.177,-0.11 0.364,-0.192 0.556,-0.244 0.827,-0.224 0.724,-0.15 -0.049,0.135"
               style="fill:#378085;fill-opacity:1;fill-rule:nonzero;stroke:none"
               id="path123513"
               inkscape:connector-curvature="0" /><path
               d="m 93.212,320.786 c -0.645,-3.967 1.805,-7.953 3.703,-10.363 0.146,-0.186 0.288,-0.36 0.428,-0.527 -0.001,-0.004 0.003,-0.005 0.003,-0.005 0.136,-0.163 0.269,-0.318 0.395,-0.462 0.003,0.045 0.006,0.094 0.014,0.142 0.091,0.99 0.211,2.028 0.384,3.092 1.026,6.305 4.372,17.28 4.372,17.28 0,0 -0.303,-11.47 -1.328,-17.775 -0.182,-1.116 -0.404,-2.187 -0.646,-3.194 0.668,0.388 1.485,0.911 2.35,1.557 2.357,1.76 5.002,4.427 5.547,7.779 1.005,6.178 -4.531,18.273 -4.755,18.757 -0.003,0.011 -0.007,0.016 -0.007,0.016 0,0 0,-0.004 -0.005,-0.01 -0.329,-0.345 -9.448,-10.096 -10.455,-16.287"
               style="fill:#378085;fill-opacity:1;fill-rule:nonzero;stroke:none"
               id="path123515"
               inkscape:connector-curvature="0" /><path
               d="m 97.755,309.571 c -0.151,0.155 -0.335,0.344 -0.553,0.566 0.039,-0.084 0.087,-0.166 0.141,-0.241 -0.001,-0.004 0.003,-0.005 0.003,-0.005 0.112,-0.177 0.245,-0.332 0.395,-0.462 0.645,-0.563 0.585,-0.451 0.014,0.142"
               style="fill:#378085;fill-opacity:1;fill-rule:nonzero;stroke:none"
               id="path123517"
               inkscape:connector-curvature="0" /><path
               d="m 193.942,306.658 c 1.154,-3.85 5.099,-6.365 7.86,-7.702 0.212,-0.104 0.416,-0.199 0.615,-0.289 0.001,-0.003 0.005,-10e-4 0.005,-10e-4 0.194,-0.088 0.381,-0.17 0.557,-0.244 -0.017,0.042 -0.036,0.087 -0.049,0.134 -0.351,0.93 -0.697,1.916 -1.006,2.949 -1.833,6.12 -3.62,17.453 -3.62,17.453 0,0 4.74,-10.449 6.574,-16.568 0.324,-1.083 0.592,-2.143 0.814,-3.155 0.432,0.641 0.939,1.469 1.434,2.427 1.351,2.613 2.564,6.169 1.59,9.421 -1.797,5.996 -12.062,14.456 -12.475,14.793 -0.008,0.009 -0.012,0.011 -0.012,0.011 0,0 0,-0.003 -0.001,-0.011 -0.145,-0.454 -4.086,-13.209 -2.286,-19.218"
               style="fill:#378085;fill-opacity:1;fill-rule:nonzero;stroke:none"
               id="path123519"
               inkscape:connector-curvature="0" /><path
               d="m 202.93,298.556 c -0.203,0.074 -0.451,0.163 -0.745,0.267 0.072,-0.058 0.151,-0.111 0.232,-0.156 0.001,-0.003 0.005,-10e-4 0.005,-10e-4 0.178,-0.111 0.365,-0.192 0.557,-0.244 0.827,-0.225 0.723,-0.15 -0.049,0.134"
               style="fill:#378085;fill-opacity:1;fill-rule:nonzero;stroke:none"
               id="path123521"
               inkscape:connector-curvature="0" /><path
               d="m 240.084,276.534 c 1.153,-3.849 5.099,-6.365 7.859,-7.702 0.212,-0.103 0.417,-0.198 0.616,-0.288 0.001,-0.003 0.004,-0.002 0.004,-0.002 0.194,-0.087 0.381,-0.169 0.557,-0.243 -0.017,0.042 -0.035,0.087 -0.049,0.134 -0.351,0.93 -0.696,1.916 -1.006,2.949 -1.833,6.119 -3.619,17.453 -3.619,17.453 0,0 4.74,-10.449 6.574,-16.568 0.324,-1.083 0.591,-2.143 0.814,-3.156 0.432,0.642 0.938,1.47 1.434,2.428 1.35,2.613 2.563,6.169 1.589,9.421 -1.796,5.996 -12.062,14.456 -12.475,14.793 -0.007,0.009 -0.012,0.011 -0.012,0.011 0,0 0.001,-0.004 -0.001,-0.012 -0.145,-0.453 -4.086,-13.209 -2.285,-19.218"
               style="fill:#378085;fill-opacity:1;fill-rule:nonzero;stroke:none"
               id="path123523"
               inkscape:connector-curvature="0" /><path
               d="m 249.071,268.433 c -0.203,0.073 -0.451,0.162 -0.745,0.267 0.072,-0.058 0.151,-0.111 0.233,-0.156 0.001,-0.003 0.004,-0.002 0.004,-0.002 0.178,-0.11 0.366,-0.192 0.557,-0.243 0.827,-0.225 0.723,-0.151 -0.049,0.134"
               style="fill:#378085;fill-opacity:1;fill-rule:nonzero;stroke:none"
               id="path123525"
               inkscape:connector-curvature="0" /><path
               d="m 246.622,401.233 c -0.467,-4.989 2.166,-9.671 4.176,-12.456 0.154,-0.215 0.305,-0.417 0.452,-0.609 0,-0.004 0.004,-0.005 0.004,-0.005 0.143,-0.187 0.283,-0.366 0.416,-0.531 0.001,0.056 0.002,0.118 0.008,0.178 0.046,1.237 0.12,2.538 0.245,3.877 0.742,7.931 3.598,21.905 3.598,21.905 0,0 0.213,-14.261 -0.528,-22.192 -0.132,-1.404 -0.305,-2.756 -0.504,-4.032 0.653,0.553 1.449,1.29 2.284,2.183 2.281,2.436 4.809,6.03 5.204,10.246 0.726,7.772 -5.364,22.181 -5.61,22.758 -0.003,0.013 -0.007,0.018 -0.007,0.018 0,0 -0.001,-0.005 -0.006,-0.013 -0.312,-0.463 -9.004,-13.538 -9.732,-21.327"
               style="fill:#378085;fill-opacity:1;fill-rule:nonzero;stroke:none"
               id="path123527"
               inkscape:connector-curvature="0" /><path
               d="m 251.678,387.81 c -0.157,0.176 -0.351,0.39 -0.579,0.642 0.042,-0.099 0.094,-0.196 0.151,-0.284 0,-0.004 0.004,-0.005 0.004,-0.005 0.12,-0.207 0.26,-0.386 0.416,-0.531 0.672,-0.63 0.605,-0.497 0.008,0.178"
               style="fill:#378085;fill-opacity:1;fill-rule:nonzero;stroke:none"
               id="path123529"
               inkscape:connector-curvature="0" /><path
               d="m 112.364,352.343 c -0.667,-3.963 2.519,-8.091 4.964,-10.605 0.188,-0.194 0.371,-0.377 0.55,-0.551 0,-0.004 0.005,-0.005 0.005,-0.005 0.175,-0.17 0.346,-0.333 0.507,-0.484 0.002,0.046 0.005,0.094 0.013,0.143 0.079,0.992 0.193,2.031 0.372,3.095 1.061,6.299 4.851,17.19 4.851,17.19 0,0 0.015,-11.532 -1.045,-17.831 -0.188,-1.115 -0.428,-2.182 -0.696,-3.185 0.819,0.36 1.819,0.848 2.872,1.457 2.874,1.661 6.076,4.224 6.639,7.572 1.039,6.172 -6.266,18.607 -6.561,19.105 -0.004,0.011 -0.008,0.015 -0.008,0.015 0,0 -0.001,-0.003 -0.008,-0.009 -0.396,-0.332 -11.413,-9.722 -12.455,-15.907"
               style="fill:#378085;fill-opacity:1;fill-rule:nonzero;stroke:none"
               id="path123531"
               inkscape:connector-curvature="0" /><path
               d="m 118.403,340.841 c -0.193,0.163 -0.428,0.361 -0.708,0.595 0.052,-0.086 0.114,-0.171 0.183,-0.249 0,-0.004 0.005,-0.005 0.005,-0.005 0.145,-0.183 0.316,-0.346 0.507,-0.484 0.823,-0.597 0.743,-0.481 0.013,0.143"
               style="fill:#378085;fill-opacity:1;fill-rule:nonzero;stroke:none"
               id="path123533"
               inkscape:connector-curvature="0" /><path
               d="m 118.62,308.816 c 1.513,-5.049 5.775,-8.622 8.721,-10.578 0.226,-0.152 0.444,-0.291 0.656,-0.423 0.001,-0.004 0.005,-0.003 0.005,-0.003 0.206,-0.129 0.405,-0.25 0.592,-0.361 -0.021,0.056 -0.044,0.115 -0.062,0.177 -0.44,1.226 -0.878,2.523 -1.284,3.879 -2.405,8.026 -5.208,22.754 -5.208,22.754 0,0 5.757,-13.844 8.162,-21.869 0.425,-1.421 0.791,-2.808 1.105,-4.128 0.388,0.788 0.838,1.808 1.263,2.998 1.161,3.245 2.101,7.714 0.823,11.98 -2.356,7.864 -13.61,19.622 -14.062,20.092 -0.009,0.012 -0.014,0.015 -0.014,0.015 0,0 0.001,-0.004 0,-0.015 -0.109,-0.57 -3.059,-16.636 -0.697,-24.518"
               style="fill:#378085;fill-opacity:1;fill-rule:nonzero;stroke:none"
               id="path123535"
               inkscape:connector-curvature="0" /><path
               d="m 128.532,297.628 c -0.215,0.112 -0.477,0.247 -0.786,0.407 0.078,-0.081 0.164,-0.156 0.251,-0.22 0.001,-0.004 0.005,-0.003 0.005,-0.003 0.192,-0.157 0.391,-0.278 0.592,-0.361 0.867,-0.359 0.755,-0.255 -0.062,0.177"
               style="fill:#378085;fill-opacity:1;fill-rule:nonzero;stroke:none"
               id="path123537"
               inkscape:connector-curvature="0" /><path
               d="m 177.87,301.408 c 1.005,-3.352 4.008,-5.673 6.093,-6.933 0.161,-0.098 0.315,-0.187 0.465,-0.272 0.001,-0.003 0.004,-0.002 0.004,-0.002 0.146,-0.083 0.287,-0.161 0.419,-0.232 -0.014,0.036 -0.029,0.076 -0.041,0.117 -0.296,0.813 -0.59,1.674 -0.86,2.574 -1.596,5.329 -3.37,15.135 -3.37,15.135 0,0 3.91,-9.166 5.507,-14.495 0.283,-0.944 0.522,-1.865 0.727,-2.743 0.291,0.533 0.631,1.223 0.956,2.026 0.888,2.189 1.636,5.194 0.787,8.027 -1.564,5.222 -9.458,12.904 -9.776,13.21 -0.006,0.008 -0.01,0.01 -0.01,0.01 0,0 0.001,-0.003 0,-0.01 -0.088,-0.383 -2.469,-11.178 -0.901,-16.412"
               style="fill:#378085;fill-opacity:1;fill-rule:nonzero;stroke:none"
               id="path123539"
               inkscape:connector-curvature="0" /><path
               d="m 184.81,294.086 c -0.153,0.071 -0.339,0.158 -0.559,0.26 0.055,-0.054 0.115,-0.102 0.177,-0.143 0.001,-0.003 0.004,-0.002 0.004,-0.002 0.135,-0.102 0.276,-0.18 0.419,-0.232 0.617,-0.227 0.538,-0.158 -0.041,0.117"
               style="fill:#378085;fill-opacity:1;fill-rule:nonzero;stroke:none"
               id="path123541"
               inkscape:connector-curvature="0" /><path
               d="m 207.094,387.343 c 1.004,-3.352 4.954,-5.389 7.738,-6.441 0.213,-0.081 0.42,-0.155 0.62,-0.225 0.001,-0.003 0.006,-0.002 0.006,-0.002 0.195,-0.068 0.384,-0.131 0.563,-0.188 -0.016,0.036 -0.033,0.076 -0.045,0.116 -0.317,0.807 -0.626,1.663 -0.895,2.563 -1.597,5.329 -2.894,15.278 -2.894,15.278 0,0 4.387,-9.023 5.983,-14.352 0.283,-0.944 0.509,-1.869 0.689,-2.755 0.476,0.589 1.039,1.346 1.596,2.218 1.52,2.379 2.942,5.586 2.094,8.419 -1.565,5.222 -11.748,12.217 -12.158,12.496 -0.007,0.008 -0.013,0.009 -0.013,0.009 0,0 0.001,-0.003 -10e-4,-0.01 -0.171,-0.408 -4.851,-11.892 -3.283,-17.126"
               style="fill:#378085;fill-opacity:1;fill-rule:nonzero;stroke:none"
               id="path123543"
               inkscape:connector-curvature="0" /><path
               d="m 215.976,380.603 c -0.206,0.055 -0.457,0.122 -0.755,0.201 0.071,-0.049 0.15,-0.091 0.231,-0.127 0.001,-0.003 0.006,-0.002 0.006,-0.002 0.178,-0.089 0.367,-0.152 0.563,-0.188 0.841,-0.159 0.738,-0.098 -0.045,0.116"
               style="fill:#378085;fill-opacity:1;fill-rule:nonzero;stroke:none"
               id="path123545"
               inkscape:connector-curvature="0" /><path
               d="m 99.464,252.27 c 3.469,0.462 6.235,3.063 7.808,4.922 0.123,0.142 0.235,0.281 0.343,0.415 0.003,10e-4 0.002,0.004 0.002,0.004 0.105,0.131 0.204,0.258 0.296,0.377 -0.039,-0.008 -0.081,-0.017 -0.123,-0.022 -0.849,-0.164 -1.746,-0.319 -2.677,-0.443 -5.515,-0.734 -15.478,-0.937 -15.478,-0.937 0,0 9.669,2.414 15.183,3.149 0.976,0.13 1.924,0.222 2.824,0.285 -0.481,0.372 -1.108,0.816 -1.85,1.264 -2.021,1.222 -4.87,2.436 -7.802,2.045 -5.404,-0.72 -14.236,-7.302 -14.589,-7.567 -0.008,-0.004 -0.01,-0.008 -0.01,-0.008 0,0 0.003,0.001 0.009,-0.002 0.365,-0.147 10.648,-4.204 16.064,-3.482"
               style="fill:#378085;fill-opacity:1;fill-rule:nonzero;stroke:none"
               id="path123547"
               inkscape:connector-curvature="0" /><path
               d="m 107.79,257.966 c -0.094,-0.139 -0.209,-0.31 -0.345,-0.511 0.062,0.046 0.119,0.098 0.17,0.152 0.003,10e-4 0.002,0.004 0.002,0.004 0.122,0.117 0.221,0.244 0.296,0.377 0.32,0.574 0.241,0.507 -0.123,-0.022"
               style="fill:#378085;fill-opacity:1;fill-rule:nonzero;stroke:none"
               id="path123549"
               inkscape:connector-curvature="0" /><path
               d="m 133.922,369.854 c 1.005,-3.353 4.009,-5.673 6.094,-6.934 0.16,-0.097 0.315,-0.187 0.464,-0.272 0.001,-0.003 0.004,-0.002 0.004,-0.002 0.146,-0.083 0.287,-0.161 0.42,-0.232 -0.015,0.037 -0.03,0.077 -0.042,0.118 -0.296,0.812 -0.59,1.673 -0.86,2.573 -1.596,5.33 -3.37,15.136 -3.37,15.136 0,0 3.911,-9.166 5.508,-14.495 0.282,-0.944 0.522,-1.866 0.727,-2.744 0.291,0.534 0.631,1.224 0.956,2.027 0.887,2.189 1.635,5.194 0.787,8.027 -1.565,5.222 -9.459,12.903 -9.777,13.21 -0.005,0.007 -0.009,0.009 -0.009,0.009 0,0 10e-4,-0.003 0,-0.009 -0.088,-0.384 -2.47,-11.179 -0.902,-16.412"
               style="fill:#378085;fill-opacity:1;fill-rule:nonzero;stroke:none"
               id="path123551"
               inkscape:connector-curvature="0" /><path
               d="m 140.862,362.532 c -0.152,0.071 -0.339,0.157 -0.559,0.259 0.055,-0.053 0.116,-0.102 0.177,-0.143 0.001,-0.003 0.004,-0.002 0.004,-0.002 0.136,-0.102 0.277,-0.18 0.42,-0.232 0.617,-0.226 0.538,-0.158 -0.042,0.118"
               style="fill:#378085;fill-opacity:1;fill-rule:nonzero;stroke:none"
               id="path123553"
               inkscape:connector-curvature="0" /><path
               d="m 170.639,375.167 c 1.005,-3.352 4.009,-5.672 6.094,-6.933 0.16,-0.097 0.314,-0.187 0.464,-0.272 0.001,-0.003 0.004,-0.002 0.004,-0.002 0.146,-0.083 0.287,-0.161 0.42,-0.231 -0.015,0.036 -0.03,0.076 -0.042,0.117 -0.296,0.812 -0.59,1.674 -0.86,2.573 -1.596,5.33 -3.37,15.136 -3.37,15.136 0,0 3.91,-9.166 5.507,-14.495 0.283,-0.944 0.523,-1.865 0.727,-2.744 0.292,0.534 0.631,1.224 0.957,2.027 0.887,2.189 1.635,5.194 0.787,8.027 -1.565,5.222 -9.459,12.903 -9.777,13.21 -0.005,0.008 -0.009,0.01 -0.009,0.01 0,0 0.001,-0.003 0,-0.01 -0.088,-0.384 -2.47,-11.179 -0.902,-16.413"
               style="fill:#378085;fill-opacity:1;fill-rule:nonzero;stroke:none"
               id="path123555"
               inkscape:connector-curvature="0" /><path
               d="m 177.579,367.846 c -0.153,0.071 -0.339,0.157 -0.559,0.259 0.055,-0.053 0.116,-0.101 0.177,-0.143 0.001,-0.003 0.004,-0.002 0.004,-0.002 0.135,-0.102 0.277,-0.18 0.42,-0.231 0.617,-0.227 0.537,-0.159 -0.042,0.117"
               style="fill:#378085;fill-opacity:1;fill-rule:nonzero;stroke:none"
               id="path123557"
               inkscape:connector-curvature="0" /></g></g></g></g></g></svg>